<?xml version="1.0" encoding="UTF-8"?>
<svg version="1.1" xmlns="http://www.w3.org/2000/svg" width="815" height="287">
<path d="M0 0 C268.95 0 537.9 0 815 0 C815 94.71 815 189.42 815 287 C546.05 287 277.1 287 0 287 C0 192.29 0 97.58 0 0 Z " fill="#000000" transform="translate(0,0)"/>
<path d="M0 0 C56.43 0 112.86 0 171 0 C170 4 170 4 166 10 C171.28 10.33 176.56 10.66 182 11 C181.10830166 14.56679337 180.5329766 15.95603121 178.4375 18.75 C177.98246094 19.36359375 177.52742187 19.9771875 177.05859375 20.609375 C176.70925781 21.06828125 176.35992187 21.5271875 176 22 C179.35179318 20.88273561 180.01707405 20.04550033 182.1875 17.375 C189.44775816 8.88444705 197.66197585 1.87448865 209 0 C210.94297226 -0.08834443 212.88857758 -0.12625885 214.83355713 -0.12698364 C216.00013855 -0.12980347 217.16671997 -0.13262329 218.36865234 -0.13552856 C220.27493408 -0.13249222 220.27493408 -0.13249222 222.21972656 -0.12939453 C223.57843065 -0.13075027 224.93713437 -0.13253118 226.2958374 -0.13470459 C229.97731843 -0.13925662 233.65877137 -0.13749899 237.34025288 -0.1343255 C241.19149666 -0.13179246 245.04273805 -0.13414189 248.89398193 -0.13571167 C255.35673453 -0.13752972 261.8194757 -0.13513568 268.28222656 -0.13037109 C275.76280259 -0.12491996 283.2433514 -0.12669875 290.72392678 -0.1321975 C297.14352536 -0.13672802 303.56311571 -0.13737976 309.98271537 -0.13475883 C313.81850109 -0.1331969 317.65427399 -0.13300018 321.4900589 -0.13629532 C325.09170566 -0.13917346 328.6933171 -0.13719943 332.29496002 -0.13140106 C334.25446015 -0.129438 336.21396325 -0.13242721 338.17346191 -0.13552856 C339.9064151 -0.13129883 339.9064151 -0.13129883 341.67437744 -0.12698364 C342.68462101 -0.12660662 343.69486458 -0.12622959 344.73572159 -0.12584114 C347 0 347 0 348 1 C348.10048523 3.73350748 348.13616261 6.44177892 348.12939453 9.17578125 C348.13202301 10.46106216 348.13202301 10.46106216 348.13470459 11.77230835 C348.13912417 14.6190592 348.13618475 17.46574847 348.1328125 20.3125 C348.13348551 22.28165702 348.13445551 24.25081397 348.13571167 26.2199707 C348.13718879 30.35270985 348.13503364 34.48542742 348.13037109 38.61816406 C348.1246738 43.92824521 348.12795273 49.23827581 348.13394356 54.5483551 C348.1375488 58.61625553 348.13641076 62.68414389 348.13381577 66.75204468 C348.13314639 68.71056118 348.13397527 70.66907876 348.13629532 72.62759399 C348.13882124 75.359832 348.13498211 78.09198697 348.12939453 80.82421875 C348.13141876 81.64191742 348.13344299 82.45961609 348.13552856 83.30209351 C348.11426246 88.88573754 348.11426246 88.88573754 347 90 C345.22130274 90.15764405 343.43681524 90.25100677 341.65234375 90.31640625 C340.57275391 90.35830078 339.49316406 90.40019531 338.38085938 90.44335938 C337.24455078 90.48267578 336.10824219 90.52199219 334.9375 90.5625 C333.79732422 90.60568359 332.65714844 90.64886719 331.48242188 90.69335938 C328.65507805 90.79982839 325.82764262 90.90184207 323 91 C323.7734375 91.3403125 324.546875 91.680625 325.34375 92.03125 C334.8711595 96.464797 343.85191549 102.68898053 347.6875 112.9375 C348.80885809 116.0621176 349.31409356 118.64966871 349 122 C349.66 122 350.32 122 351 122 C351 128.27 351 134.54 351 141 C350.34 141 349.68 141 349 141 C348.938125 142.11375 348.87625 143.2275 348.8125 144.375 C347.40776821 154.87352181 340.99479277 162.45774952 333 169 C323.02390716 175.33897566 314.03810799 176.29244995 302.44555664 176.22705078 C301.0750835 176.22648598 299.70460975 176.22680458 298.33413696 176.22793579 C294.63007057 176.22850761 290.92613475 176.21678111 287.22209859 176.20278788 C283.34504824 176.19025192 279.46799461 176.18910776 275.59092712 176.18673706 C268.25648467 176.18053069 260.92210212 176.16413133 253.587686 176.14403808 C245.2346076 176.12165279 236.88152628 176.11067904 228.52842534 176.10064721 C211.35224896 176.07976433 194.17613082 176.0446048 177 176 C179.02633069 180.32371893 179.02633069 180.32371893 182 184 C182 184.99 182 185.98 182 187 C125.57 187 69.14 187 11 187 C11 183.37 11 179.74 11 176 C7.37 176 3.74 176 0 176 C0 117.92 0 59.84 0 0 Z " fill="#FDFAF3" transform="translate(154,33)"/>
<path d="M0 0 C1.16658142 -0.00281982 2.33316284 -0.00563965 3.53509521 -0.00854492 C5.44137695 -0.00550858 5.44137695 -0.00550858 7.38616943 -0.00241089 C8.74487352 -0.00376663 10.10357725 -0.00554754 11.46228027 -0.00772095 C15.1437613 -0.01227297 18.82521424 -0.01051535 22.50669575 -0.00734186 C26.35793953 -0.00480882 30.20918093 -0.00715825 34.0604248 -0.00872803 C40.52317741 -0.01054608 46.98591857 -0.00815203 53.44866943 -0.00338745 C60.92924546 0.00206368 68.40979427 0.00028489 75.89036965 -0.00521386 C82.30996823 -0.00974438 88.72955859 -0.01039611 95.14915824 -0.00777519 C98.98494396 -0.00621326 102.82071686 -0.00601654 106.65650177 -0.00931168 C110.25814853 -0.01218982 113.85975997 -0.01021579 117.46140289 -0.00441742 C119.42090302 -0.00245436 121.38040613 -0.00544357 123.33990479 -0.00854492 C124.49520691 -0.0057251 125.65050903 -0.00290527 126.84082031 0 C127.85106388 0.00037703 128.86130745 0.00075405 129.90216446 0.0011425 C132.16644287 0.12698364 132.16644287 0.12698364 133.16644287 1.12698364 C133.26692811 3.86049112 133.30260548 6.56876256 133.2958374 9.30276489 C133.29846588 10.58804581 133.29846588 10.58804581 133.30114746 11.89929199 C133.30556704 14.74604284 133.30262762 17.59273211 133.29925537 20.43948364 C133.29992838 22.40864067 133.30089838 24.37779761 133.30215454 26.34695435 C133.30363166 30.47969349 133.30147651 34.61241106 133.29681396 38.74514771 C133.29111667 44.05522885 133.2943956 49.36525946 133.30038643 54.67533875 C133.30399167 58.74323918 133.30285363 62.81112753 133.30025864 66.87902832 C133.29958926 68.83754482 133.30041814 70.7960624 133.30273819 72.75457764 C133.30526411 75.48681564 133.30142499 78.21897061 133.2958374 80.95120239 C133.29786163 81.76890106 133.29988586 82.58659973 133.30197144 83.42907715 C133.28070533 89.01272118 133.28070533 89.01272118 132.16644287 90.12698364 C130.38774561 90.28462769 128.60325811 90.37799041 126.81878662 90.44338989 C125.73919678 90.48528442 124.65960693 90.52717896 123.54730225 90.57034302 C122.41099365 90.60965942 121.27468506 90.64897583 120.10394287 90.68948364 C118.96376709 90.73266724 117.82359131 90.77585083 116.64886475 90.82034302 C113.82152092 90.92681203 110.99408549 91.02882572 108.16644287 91.12698364 C108.93988037 91.46729614 109.71331787 91.80760864 110.51019287 92.15823364 C120.03760238 96.59178064 129.01835836 102.81596417 132.85394287 113.06448364 C133.97530096 116.18910125 134.48053643 118.77665235 134.16644287 122.12698364 C134.82644287 122.12698364 135.48644287 122.12698364 136.16644287 122.12698364 C136.16644287 128.39698364 136.16644287 134.66698364 136.16644287 141.12698364 C135.50644287 141.12698364 134.84644287 141.12698364 134.16644287 141.12698364 C134.10456787 142.24073364 134.04269287 143.35448364 133.97894287 144.50198364 C132.57421108 155.00050546 126.16123564 162.58473316 118.16644287 169.12698364 C108.19035003 175.4659593 99.20455087 176.41943359 87.61199951 176.35403442 C86.24152637 176.35346962 84.87105262 176.35378822 83.50057983 176.35491943 C79.79651344 176.35549125 76.09257762 176.34376475 72.38854146 176.32977152 C68.51149111 176.31723556 64.63443749 176.31609141 60.75737 176.3137207 C53.42292754 176.30751434 46.08854499 176.29111497 38.75412887 176.27102172 C30.40105047 176.24863643 22.04796915 176.23766269 13.69486821 176.22763085 C-3.48130817 176.20674797 -20.65742631 176.17158845 -37.83355713 176.12698364 C-37.85667954 164.67048348 -37.87447169 153.21398883 -37.8853693 141.75747013 C-37.89059835 136.43833151 -37.8976964 131.1192088 -37.90899658 125.80007935 C-37.91982468 120.67134379 -37.9258338 115.54262358 -37.92843437 110.41387749 C-37.93028876 108.4525675 -37.93390964 106.4912584 -37.93928719 104.52995491 C-37.94649659 101.79282917 -37.94754811 99.05576767 -37.94708252 96.31863403 C-37.9506778 95.49936432 -37.95427307 94.6800946 -37.95797729 93.83599854 C-37.94760929 88.2410358 -37.94760929 88.2410358 -36.83355713 87.12698364 C-35.49340492 86.97116061 -34.1459681 86.87654222 -32.79840088 86.81057739 C-31.98951416 86.76868286 -31.18062744 86.72678833 -30.347229 86.68362427 C-29.49709229 86.64430786 -28.64695557 86.60499146 -27.77105713 86.56448364 C-26.91705322 86.52130005 -26.06304932 86.47811646 -25.1831665 86.43362427 C-23.06683676 86.32721663 -20.950219 86.22656633 -18.83355713 86.12698364 C-22.30382221 81.95182096 -25.78741363 78.05365311 -29.95855713 74.56448364 C-36.95167727 68.572313 -40.92155091 61.77747728 -42.18536377 52.56155396 C-43.22038186 38.00382879 -41.78188407 27.26969625 -32.11871338 15.82229614 C-23.45927645 6.21693107 -13.19071957 0.00491547 0 0 Z " fill="#FDFAF3" transform="translate(368.83355712890625,32.873016357421875)"/>
<path d="M0 0 C15.71625 -0.061875 31.4325 -0.12375 47.625 -0.1875 C52.56162598 -0.21481201 57.49825195 -0.24212402 62.58447266 -0.27026367 C68.6784668 -0.28381348 68.6784668 -0.28381348 71.54403687 -0.28633118 C73.51760903 -0.2908955 75.49117357 -0.30135716 77.46469116 -0.31672668 C92.08205535 -0.42473462 106.14838894 -0.3405186 119.375 6.75 C120.04708496 7.09853027 120.71916992 7.44706055 121.41162109 7.80615234 C126.59031785 10.57978031 130.88984988 13.7891109 135 18 C135.78890625 18.68449219 135.78890625 18.68449219 136.59375 19.3828125 C145.32257051 27.17640224 149.12120921 38.65691215 150.31640625 50.00390625 C150.74736599 60.66668426 147.62417117 69.68871095 141.07421875 78.0625 C139.83339566 79.91397868 139.83339566 79.91397868 140.05078125 81.94140625 C141.81738548 85.77268373 145.05214233 88.4790128 147.96875 91.46484375 C150.08493569 94.10600627 150.66719916 95.67793444 151 99 C151.66 99 152.32 99 153 99 C157.66762455 110.82751353 158.36579176 125.11423285 153.5625 137.0625 C145.67939242 153.91540523 132.79232687 165.23936543 115.77941895 172.34513855 C103.50537165 176.71977372 91.82558788 176.64664237 78.90625 176.48828125 C76.87728566 176.48091004 74.84831174 176.47582137 72.81933594 176.47302246 C65.37941026 176.44703722 57.93968945 176.37723181 50.5 176.3125 C25.5025 176.1578125 25.5025 176.1578125 0 176 C0 117.92 0 59.84 0 0 Z " fill="#FDFAF3" transform="translate(513,33)"/>
<path d="M0 0 C0.33 0 0.66 0 1 0 C1 57.75 1 115.5 1 175 C17.62375 174.95875 34.2475 174.9175 51.375 174.875 C56.58845215 174.87741699 61.8019043 174.87983398 67.17333984 174.88232422 C71.92185604 174.85572621 71.92185604 174.85572621 76.6703186 174.82131958 C78.75532981 174.80991464 80.84042563 174.80993106 82.92544556 174.8196106 C104.74425442 174.90474816 124.50193248 170.73459259 140.90625 155.28125 C152.73872413 142.38915132 156.77183772 129.10703213 156.37109375 112.015625 C156.12921993 107.17061944 155.1842103 102.69879427 154 98 C153.34 98 152.68 98 152 98 C151.60296875 97.11570312 151.2059375 96.23140625 150.796875 95.3203125 C148.42977633 90.94632583 145.24362564 87.87799947 141.765625 84.3671875 C140 82 140 82 140.0546875 79.984375 C141.16741918 77.64855808 142.45732346 75.54030695 143.875 73.375 C150.41782126 62.61709196 151.51514099 52.01226827 148.8125 39.75 C147.54424635 35.08135613 145.74817685 31.41562019 142.890625 27.5234375 C142.59671875 27.02070312 142.3028125 26.51796875 142 26 C142.33 25.34 142.66 24.68 143 24 C143.65226562 24.66386719 144.30453125 25.32773437 144.9765625 26.01171875 C150.50276158 31.66512707 150.50276158 31.66512707 156.4375 36.875 C158.74616231 38.78950045 160.42374219 40.46047352 162 43 C162 43.66 162 44.32 162 45 C162.66 45 163.32 45 164 45 C171.18611557 57.02337136 175.51259506 68.81520111 172.05078125 82.84765625 C170.40819519 88.34119407 168.65150165 93.58427936 165.125 98.1875 C162.76376595 100.67365931 162.76376595 100.67365931 163.1328125 102.94921875 C164.22665276 105.53600314 165.6493468 106.76915977 167.75 108.625 C175.63988469 116.21795355 179.16623966 126.22742575 179.43139648 137.06665039 C179.46520503 151.23784096 175.99192595 162.69780592 167 174 C166.34 174 165.68 174 165 174 C164.7525 174.61875 164.505 175.2375 164.25 175.875 C162.79371361 178.35068687 161.62187494 178.95125002 159 180 C159 180.66 159 181.32 159 182 C146.27712626 191.76978893 131.324205 197.5277568 115.29614258 197.34057617 C113.78680649 197.34123329 113.78680649 197.34123329 112.24697876 197.34190369 C108.96262343 197.33983463 105.67879601 197.31659318 102.39453125 197.29296875 C100.10097024 197.28736609 97.80740562 197.28309916 95.51383972 197.28010559 C89.50839134 197.26870961 83.50316431 197.2392879 77.49780273 197.20599365 C71.35728956 197.17517922 65.21674026 197.16157603 59.07617188 197.14648438 C47.05068457 197.11441291 35.02536077 197.06328055 23 197 C23 193.37 23 189.74 23 186 C19.04 186 15.08 186 11 186 C11 182.7 11 179.4 11 176 C7.70349214 179.16603283 7.70349214 179.16603283 4.75390625 182.64453125 C-0.87480727 190.04370066 -9.82926984 195.36199893 -19 197 C-23.5494485 197.28324782 -28.0893406 197.25257122 -32.64624023 197.22705078 C-34.02656547 197.22648599 -35.4068913 197.22680456 -36.78721619 197.22793579 C-40.51814084 197.22850764 -44.24893587 197.21678058 -47.9798305 197.20278788 C-51.88490812 197.1902525 -55.78998898 197.18910781 -59.69508362 197.18673706 C-67.08264981 197.18053052 -74.47015654 197.16413093 -81.85769659 197.14403808 C-90.2712334 197.12165332 -98.6847731 197.11067918 -107.09833229 197.10064721 C-124.39892351 197.07976394 -141.69945318 197.04419937 -159 197 C-159 193.37 -159 189.74 -159 186 C-162.63 186 -166.26 186 -170 186 C-170 182.37 -170 178.74 -170 175 C-167.62791855 174.99120064 -167.62791855 174.99120064 -165.20791626 174.98222351 C-150.28875182 174.92495577 -135.36975066 174.85234828 -120.45073891 174.76428509 C-112.78113813 174.71940405 -105.111583 174.67997186 -97.44189453 174.65356445 C-90.75354383 174.63052184 -84.06533848 174.59705445 -77.37710321 174.55129844 C-73.83884011 174.52745019 -70.30072021 174.50866666 -66.76237869 174.50238609 C-62.80317752 174.49516251 -58.84433372 174.46465483 -54.88525391 174.43237305 C-53.14384125 174.43452568 -53.14384125 174.43452568 -51.36724854 174.4367218 C-38.31995402 174.28674459 -28.86247185 170.552782 -19.25 161.75 C-13.45102573 155.6550224 -10.65384651 148.11888285 -9 140 C-8.34 140 -7.68 140 -7 140 C-7 133.73 -7 127.46 -7 121 C-7.66 121 -8.32 121 -9 121 C-9.17273438 120.18917969 -9.34546875 119.37835938 -9.5234375 118.54296875 C-12.15877431 108.15877462 -16.91230895 100.68368182 -26.21484375 95.0546875 C-29.10948242 93.60210519 -32.03337879 92.29592129 -35 91 C-35.99 90.34 -36.98 89.68 -38 89 C-29.09 88.67 -20.18 88.34 -11 88 C-10.505 49.39 -10.505 49.39 -10 10 C-6.7 10 -3.4 10 0 10 C0 6.7 0 3.4 0 0 Z " fill="#A6A49E" transform="translate(512,34)"/>
<path d="M0 0 C-0.875 7.75 -0.875 7.75 -2 10 C-2.2961258 13.49305909 -2.2781906 16.99586636 -2.3125 20.5 C-2.34150391 21.45648438 -2.37050781 22.41296875 -2.40039062 23.3984375 C-2.49876479 34.56768892 1.50112844 42.85657135 9 51 C10.69391255 52.52416012 12.40075267 53.95763492 14.2265625 55.3203125 C16.89107695 57.84397156 18.86688811 61.01364336 21 64 C10.605 64.495 10.605 64.495 0 65 C0 94.04 0 123.08 0 153 C-5.62358277 147.37641723 -5.62358277 147.37641723 -7.69140625 144.57421875 C-8.15506592 143.95063477 -8.61872559 143.32705078 -9.09643555 142.68457031 C-9.82213745 141.69602051 -9.82213745 141.69602051 -10.5625 140.6875 C-11.62228362 139.25903133 -12.6821828 137.83064838 -13.7421875 136.40234375 C-14.28069336 135.6738623 -14.81919922 134.94538086 -15.37402344 134.19482422 C-17.96230046 130.70103887 -20.57571691 127.22622582 -23.1875 123.75 C-24.1941157 122.40763103 -25.2006284 121.06518481 -26.20703125 119.72265625 C-27.88976606 117.47882014 -29.57469742 115.23671449 -31.26171875 112.99609375 C-36.53963683 105.98163331 -41.75389853 98.92169263 -46.95263672 91.84838867 C-47.51869629 91.07857666 -48.08475586 90.30876465 -48.66796875 89.515625 C-49.21630371 88.76087891 -49.76463867 88.00613281 -50.32958984 87.22851562 C-51.45533581 85.72664349 -52.62410753 84.25619833 -53.83056641 82.81835938 C-55.39131789 80.92755968 -56.80743611 79.14204988 -58 77 C-57.44176605 72.54741967 -54.04681732 69.28003696 -51.25 65.875 C-46.71030813 60.22570722 -42.34347626 54.47267662 -38.0625 48.625 C-33.26732106 42.08079192 -28.44024925 35.56410669 -23.55688477 29.08544922 C-20.77168797 25.38331712 -18.01450569 21.66256272 -15.28125 17.921875 C-14.6521875 17.06207031 -14.023125 16.20226562 -13.375 15.31640625 C-12.15323989 13.6441221 -10.93434323 11.96974099 -9.71875 10.29296875 C-2.19495558 0 -2.19495558 0 0 0 Z " fill="#010102" transform="translate(330,56)"/>
<path d="M0 0 C0.33 0 0.66 0 1 0 C1 57.42 1 114.84 1 174 C0.67 174 0.34 174 0 174 C-0.33 170.7 -0.66 167.4 -1 164 C-1.72703125 165.08667969 -1.72703125 165.08667969 -2.46875 166.1953125 C-9.97281887 177.01848875 -17.27070856 182.28203642 -30 186 C-34.79417266 186.63234634 -39.49730684 186.63640854 -44.32739258 186.56762695 C-45.70860238 186.56621233 -47.08981592 186.56701653 -48.47102356 186.56983948 C-52.17708699 186.57125893 -55.88232137 186.54211225 -59.58819413 186.50696969 C-63.47718355 186.47545689 -67.3661974 186.47275601 -71.2552948 186.46684265 C-78.6003144 186.45137669 -85.94495654 186.41044793 -93.28981084 186.3600952 C-101.65991158 186.30397426 -110.0300315 186.27665839 -118.40027392 186.25161803 C-135.6004062 186.19952436 -152.80014855 186.11070377 -170 186 C-170 182.37 -170 178.74 -170 175 C-167.62791855 174.99120064 -167.62791855 174.99120064 -165.20791626 174.98222351 C-150.28875182 174.92495577 -135.36975066 174.85234828 -120.45073891 174.76428509 C-112.78113813 174.71940405 -105.111583 174.67997186 -97.44189453 174.65356445 C-90.75354383 174.63052184 -84.06533848 174.59705445 -77.37710321 174.55129844 C-73.83884011 174.52745019 -70.30072021 174.50866666 -66.76237869 174.50238609 C-62.80317752 174.49516251 -58.84433372 174.46465483 -54.88525391 174.43237305 C-53.14384125 174.43452568 -53.14384125 174.43452568 -51.36724854 174.4367218 C-38.31995402 174.28674459 -28.86247185 170.552782 -19.25 161.75 C-13.45102573 155.6550224 -10.65384651 148.11888285 -9 140 C-8.34 140 -7.68 140 -7 140 C-7 133.73 -7 127.46 -7 121 C-7.66 121 -8.32 121 -9 121 C-9.17273438 120.18917969 -9.34546875 119.37835938 -9.5234375 118.54296875 C-12.15877431 108.15877462 -16.91230895 100.68368182 -26.21484375 95.0546875 C-29.10948242 93.60210519 -32.03337879 92.29592129 -35 91 C-35.99 90.34 -36.98 89.68 -38 89 C-29.09 88.67 -20.18 88.34 -11 88 C-10.505 49.39 -10.505 49.39 -10 10 C-6.7 10 -3.4 10 0 10 C0 6.7 0 3.4 0 0 Z " fill="#A6A59F" transform="translate(512,34)"/>
<path d="M0 0 C-0.71160767 3.14364834 -1.61996552 5.15995402 -3.5625 7.75 C-4.01753906 8.36359375 -4.47257813 8.9771875 -4.94140625 9.609375 C-5.46541016 10.29773438 -5.46541016 10.29773438 -6 11 C-5.34 11 -4.68 11 -4 11 C-4.33 12.65 -4.66 14.3 -5 16 C-5.99 14.515 -5.99 14.515 -7 13 C-11.67870201 18.17274254 -15.92709939 23.48507008 -19.9375 29.1875 C-24.87570275 36.11950029 -29.94702837 42.93282373 -35.125 49.6875 C-40.23884985 56.36148686 -45.32095195 63.05106541 -50.24145508 69.86938477 C-52.34264073 72.77588314 -54.4813281 75.62540005 -56.7421875 78.41015625 C-57.17539307 78.95341553 -57.60859863 79.4966748 -58.05493164 80.05639648 C-59.22795562 81.51954521 -60.41992589 82.96744837 -61.61328125 84.4140625 C-63.26009566 86.86015599 -63.26009566 86.86015599 -62.63671875 89.30859375 C-60.22818452 93.26916674 -57.39961181 96.82672747 -54.5 100.4375 C-50.11758241 105.97604643 -45.80921765 111.53211469 -41.75 117.3125 C-38.24641263 122.29117003 -34.62558435 127.15181521 -30.89404297 131.96166992 C-27.51457399 136.31996056 -24.18451385 140.71336251 -20.875 145.125 C-20.40852051 145.74552246 -19.94204102 146.36604492 -19.46142578 147.00537109 C-15.24771993 152.62900837 -11.13455146 158.31499174 -7 164 C-6.505 120.935 -6.505 120.935 -6 77 C-5.67 77 -5.34 77 -5 77 C-4.99453156 78.69342781 -4.99453156 78.69342781 -4.98895264 80.42106628 C-4.95201428 91.05945402 -4.8942542 101.69755199 -4.81609726 112.33571911 C-4.7765851 117.80496103 -4.74441489 123.27404105 -4.72900391 128.7434082 C-4.71386207 134.02150352 -4.67946024 139.29915381 -4.63169098 144.57705116 C-4.61685169 146.59083501 -4.60895753 148.60468239 -4.60811615 150.61852074 C-4.60575243 153.43911583 -4.57872072 156.25847514 -4.54589844 159.07885742 C-4.5509288 159.91179825 -4.55595917 160.74473907 -4.56114197 161.60292053 C-4.46802984 166.7733229 -3.61707106 169.08109458 0 173 C0 173.99 0 174.98 0 176 C-56.43 176 -112.86 176 -171 176 C-171 172.37 -171 168.74 -171 165 C-118.2 165 -65.4 165 -11 165 C-12.89141041 161.84764932 -14.66663389 158.98027029 -16.828125 156.05859375 C-17.37275391 155.32060547 -17.91738281 154.58261719 -18.47851562 153.82226562 C-19.06310547 153.03529297 -19.64769531 152.24832031 -20.25 151.4375 C-20.86552734 150.60541016 -21.48105469 149.77332031 -22.11523438 148.91601562 C-27.17362176 142.08795986 -32.27293958 135.29073774 -37.38061523 128.49951172 C-41.72804989 122.71384073 -46.03043903 116.89667648 -50.3125 111.0625 C-54.2764199 105.66266472 -58.27443529 100.29686303 -62.375 95 C-63.15101563 93.989375 -63.92703125 92.97875 -64.7265625 91.9375 C-66.28583625 89.92276828 -67.86511736 87.92340951 -69.4609375 85.9375 C-70.21632813 84.968125 -70.97171875 83.99875 -71.75 83 C-72.42546875 82.154375 -73.1009375 81.30875 -73.796875 80.4375 C-75 78 -75 78 -74.59375 75.6953125 C-72.30135303 71.81846468 -69.56690648 68.38263052 -66.75 64.875 C-61.67447633 58.45653622 -56.70773649 51.97836571 -51.875 45.375 C-50.71229236 43.78772176 -49.5495324 42.20048183 -48.38671875 40.61328125 C-47.82259277 39.84322754 -47.2584668 39.07317383 -46.67724609 38.27978516 C-44.03653354 34.69041488 -41.36437586 31.12494272 -38.6875 27.5625 C-38.19668945 26.90870361 -37.70587891 26.25490723 -37.20019531 25.58129883 C-34.96142358 22.6014347 -32.71754443 19.62559828 -30.46484375 16.65625 C-29.30662109 15.12484375 -29.30662109 15.12484375 -28.125 13.5625 C-27.02865234 12.15097656 -27.02865234 12.15097656 -25.91015625 10.7109375 C-23.93550845 8.08895076 -23.93550845 8.08895076 -22.74609375 5.2265625 C-18.3203872 -4.26752746 -8.86474458 -1.27302936 0 0 Z " fill="#A4A39E" transform="translate(336,44)"/>
<path d="M0 0 C9.14154483 7.47244254 15.93616618 16.05707776 17.23828125 28.22705078 C18.1289635 44.15127048 15.16692078 57.22092325 5 70 C4.34 70 3.68 70 3 70 C2.7525 70.61875 2.505 71.2375 2.25 71.875 C0.79371361 74.35068687 -0.37812506 74.95125002 -3 76 C-3 76.66 -3 77.32 -3 78 C-15.72287374 87.76978893 -30.675795 93.5277568 -46.70385742 93.34057617 C-48.21319351 93.34123329 -48.21319351 93.34123329 -49.75302124 93.34190369 C-53.03737657 93.33983463 -56.32120399 93.31659318 -59.60546875 93.29296875 C-61.89902976 93.28736609 -64.19259438 93.28309916 -66.48616028 93.28010559 C-72.49160866 93.26870961 -78.49683569 93.2392879 -84.50219727 93.20599365 C-90.64271044 93.17517922 -96.78325974 93.16157603 -102.92382812 93.14648438 C-114.94931543 93.11441291 -126.97463923 93.06328055 -139 93 C-139 89.37 -139 85.74 -139 82 C-137.89547485 81.99857498 -136.79094971 81.99714996 -135.6529541 81.99568176 C-125.17984509 81.97892127 -114.70712012 81.93587359 -104.23421478 81.86790943 C-98.85156317 81.83380122 -93.46919052 81.80855477 -88.08642578 81.80444336 C-82.87954193 81.80012551 -77.67328566 81.7713771 -72.46659851 81.72656822 C-70.49260633 81.71370372 -68.51853862 81.70924572 -66.54450989 81.71384621 C-51.12220348 81.74138442 -38.06190892 79.66453286 -24.25 72.3125 C-23.14140625 71.73113281 -22.0328125 71.14976562 -20.890625 70.55078125 C-19.93671875 70.03902344 -18.9828125 69.52726562 -18 69 C-16.66928612 68.32811995 -15.33720535 67.65886574 -14 67 C-14 66.34 -14 65.68 -14 65 C-12.989375 64.195625 -11.97875 63.39125 -10.9375 62.5625 C-2.08947966 55.14446275 3.98109464 43.0414057 5.27050781 31.59960938 C5.9677463 21.41759036 5.53620514 12.30924027 1 3 C0.67 2.01 0.34 1.02 0 0 Z " fill="#4E4C49" transform="translate(674,138)"/>
<path d="M0 0 C0.33 0 0.66 0 1 0 C1.33 3.96 1.66 7.92 2 12 C7.445 12.495 7.445 12.495 13 13 C13 16.63 13 20.26 13 24 C12.67 24 12.34 24 12 24 C12 20.7 12 17.4 12 14 C8.70349214 17.16603283 8.70349214 17.16603283 5.75390625 20.64453125 C0.12519273 28.04370066 -8.82926984 33.36199893 -18 35 C-22.5494485 35.28324782 -27.0893406 35.25257122 -31.64624023 35.22705078 C-33.02656547 35.22648599 -34.4068913 35.22680456 -35.78721619 35.22793579 C-39.51814084 35.22850764 -43.24893587 35.21678058 -46.9798305 35.20278788 C-50.88490812 35.1902525 -54.78998898 35.18910781 -58.69508362 35.18673706 C-66.08264981 35.18053052 -73.47015654 35.16413093 -80.85769659 35.14403808 C-89.2712334 35.12165332 -97.6847731 35.11067918 -106.09833229 35.10064721 C-123.39892351 35.07976394 -140.69945318 35.04419937 -158 35 C-158 31.37 -158 27.74 -158 24 C-156.41274612 23.99857498 -154.82549225 23.99714996 -153.19013977 23.99568176 C-138.19827534 23.97897915 -123.20673367 23.93640016 -108.21502399 23.86790943 C-100.50847059 23.83335713 -92.80209425 23.8079168 -85.09545898 23.80444336 C-78.37296052 23.80138979 -71.65077817 23.78071385 -64.92840165 23.73947543 C-61.3737279 23.71826881 -57.81950214 23.70548034 -54.26476479 23.71384621 C-50.28195001 23.72288755 -46.30031453 23.69255852 -42.31762695 23.65942383 C-41.15812027 23.66804947 -39.99861359 23.67667511 -38.80397034 23.68556213 C-27.62392839 23.53064945 -16.03188478 20.1724867 -8 12 C-5.00828323 8.21515754 -2.16218235 4.3243647 0 0 Z " fill="#4D4C4A" transform="translate(511,196)"/>
<path d="M0 0 C0.66 0 1.32 0 2 0 C3.70690474 2.19756551 5.30431436 4.39558115 6.875 6.6875 C7.74603168 7.94235425 8.61840783 9.19627643 9.4921875 10.44921875 C9.91209961 11.05556152 10.33201172 11.6619043 10.76464844 12.28662109 C11.88009921 13.83370281 13.09545631 15.3075396 14.3203125 16.76953125 C16 19 16 19 16 22 C-40.43 22 -96.86 22 -155 22 C-155 18.37 -155 14.74 -155 11 C-102.2 11 -49.4 11 5 11 C3.38208558 8.30347597 1.74434373 5.61651559 0 3 C0 2.01 0 1.02 0 0 Z " fill="#4D4C4A" transform="translate(331,209)"/>
<path d="M0 0 C-0.875 7.75 -0.875 7.75 -2 10 C-2.05759927 11.33214017 -2.06149142 12.66687526 -2.03515625 14 C-2.03626848 25.04221966 -2.95956877 30.95956877 -11 39 C-12.34521141 40.76723851 -13.65730722 42.56010823 -14.9375 44.375 C-17.7500859 48.28289822 -20.6031478 52.15409331 -23.5 56 C-27.01454793 60.66804059 -30.46313303 65.37697496 -33.86328125 70.12890625 C-35.46207006 72.27718737 -37.08709279 74.3424508 -38.79296875 76.40234375 C-39.2629126 76.97992432 -39.73285645 77.55750488 -40.21704102 78.15258789 C-41.13871079 79.28010311 -42.07501412 80.3958504 -43.02709961 81.49780273 C-44.47875882 83.20688079 -44.47875882 83.20688079 -46 86 C-45.24659359 89.77827693 -43.20808687 92.22873242 -40.75 95.125 C-36.82677432 99.9020212 -33.14661827 104.82161213 -29.5 109.8125 C-22.97545232 118.72527498 -16.30612838 127.52111064 -9.59375 136.29296875 C-8.69269531 137.48092041 -8.69269531 137.48092041 -7.7734375 138.69287109 C-6.59271821 140.22891148 -5.38938824 141.74783701 -4.1640625 143.24853516 C-3.60460937 143.94640137 -3.04515625 144.64426758 -2.46875 145.36328125 C-1.71754883 146.27460815 -1.71754883 146.27460815 -0.95117188 147.2043457 C0 149 0 149 -0.34570312 151.22729492 C-0.56162109 151.8122876 -0.77753906 152.39728027 -1 153 C-7.95728907 144.01093625 -14.81289976 134.94993887 -21.61865234 125.84570312 C-23.53213666 123.28897965 -25.45436026 120.73885075 -27.375 118.1875 C-30.01489086 114.66923677 -32.63777832 111.13939481 -35.24609375 107.59765625 C-35.82762207 106.8080249 -36.40915039 106.01839355 -37.00830078 105.20483398 C-38.20834293 103.57202968 -39.40594808 101.93743139 -40.60107422 100.30102539 C-43.54721851 96.27724841 -46.53007784 92.30003526 -49.63671875 88.3984375 C-50.20350342 87.67688477 -50.77028809 86.95533203 -51.35424805 86.21191406 C-52.42797697 84.85036017 -53.51615689 83.50004343 -54.62036133 82.16308594 C-56.0625 80.3203125 -56.0625 80.3203125 -58 77 C-57.32053292 72.54269594 -54.05580342 69.29097725 -51.25 65.875 C-46.71030813 60.22570722 -42.34347626 54.47267662 -38.0625 48.625 C-33.26732106 42.08079192 -28.44024925 35.56410669 -23.55688477 29.08544922 C-20.77168797 25.38331712 -18.01450569 21.66256272 -15.28125 17.921875 C-14.6521875 17.06207031 -14.023125 16.20226562 -13.375 15.31640625 C-12.15323989 13.6441221 -10.93434323 11.96974099 -9.71875 10.29296875 C-2.19495558 0 -2.19495558 0 0 0 Z " fill="#4F4C49" transform="translate(330,56)"/>
<path d="M0 0 C0.33 0 0.66 0 1 0 C1.02333844 15.61151288 1.04098383 31.22302106 1.05181217 46.83454704 C1.05697311 54.08290057 1.06401199 61.33124327 1.07543945 68.57958984 C1.08539243 74.89568276 1.0918549 81.21176785 1.09408849 87.52786839 C1.09539455 90.87359851 1.09847382 94.2193062 1.10573006 97.56502914 C1.11294511 101.29580793 1.11399074 105.02653962 1.11352539 108.75732422 C1.11712067 109.87222229 1.12071594 110.98712036 1.12442017 112.13580322 C1.1230455 113.14825104 1.12167084 114.16069885 1.12025452 115.2038269 C1.12117631 116.08690458 1.1220981 116.96998226 1.12304783 117.87981987 C1 120 1 120 0 122 C-2.48412207 122.82804069 -4.35220307 123 -7 123 C-7 122.34 -7 121.68 -7 121 C-7.66 121 -8.32 121 -9 121 C-9.17273438 120.18917969 -9.34546875 119.37835938 -9.5234375 118.54296875 C-12.15877431 108.15877462 -16.91230895 100.68368182 -26.21484375 95.0546875 C-29.10948242 93.60210519 -32.03337879 92.29592129 -35 91 C-35.99 90.34 -36.98 89.68 -38 89 C-29.09 88.67 -20.18 88.34 -11 88 C-10.67 62.26 -10.34 36.52 -10 10 C-6.7 10 -3.4 10 0 10 C0 6.7 0 3.4 0 0 Z " fill="#A6A5A1" transform="translate(512,34)"/>
<path d="M0 0 C0.65355469 0.56267578 0.65355469 0.56267578 1.3203125 1.13671875 C1.91585937 1.64847656 2.51140625 2.16023438 3.125 2.6875 C3.76695312 3.24050781 4.40890625 3.79351562 5.0703125 4.36328125 C6.68599905 5.73367126 8.33893054 7.05998668 10 8.375 C13.68551906 11.59982917 17.06654515 15.0684762 20 19 C20 19.66 20 20.32 20 21 C20.66 21 21.32 21 22 21 C29.18611557 33.02337136 33.51259506 44.81520111 30.05078125 58.84765625 C28.02466502 65.63310031 25.59934085 71.53051358 21 77 C20.34 77.99 19.68 78.98 19 80 C18.11248047 79.00419922 18.11248047 79.00419922 17.20703125 77.98828125 C10.41513903 70.38886388 10.41513903 70.38886388 3.109375 63.2890625 C2.45453125 62.67804688 1.7996875 62.06703125 1.125 61.4375 C0.50882813 60.87933594 -0.10734375 60.32117188 -0.7421875 59.74609375 C-2 58 -2 58 -1.875 56.07421875 C-0.85101858 53.64683421 0.43164949 51.57952042 1.875 49.375 C8.41782126 38.61709196 9.51514099 28.01226827 6.8125 15.75 C5.5475591 11.11593766 3.77752289 7.42343909 0.98828125 3.5234375 C0 2 0 2 0 0 Z " fill="#4E4A46" transform="translate(654,58)"/>
<path d="M0 0 C11.55 0 23.1 0 35 0 C35 11.55 35 23.1 35 35 C23.45 35 11.9 35 0 35 C0 23.45 0 11.9 0 0 Z " fill="#FDFAF4" transform="translate(703,172)"/>
<path d="M0 0 C11.28437677 9.17058862 18.7427868 19.99619725 20.28515625 34.72265625 C20.72882143 48.12906068 15.98637363 58.54165358 8 69 C6.29639988 67.26346561 4.61316173 65.51314607 2.9375 63.75 C2.20950195 63.01330078 2.20950195 63.01330078 1.46679688 62.26171875 C-2.00322757 58.57020339 -2.00322757 58.57020339 -1.98828125 55.9296875 C-0.81974841 53.6480463 0.47031937 51.52045749 1.875 49.375 C8.41782126 38.61709196 9.51514099 28.01226827 6.8125 15.75 C5.5475591 11.11593766 3.77752289 7.42343909 0.98828125 3.5234375 C0 2 0 2 0 0 Z " fill="#A7A49C" transform="translate(654,58)"/>
<path d="M0 0 C17.97569233 -0.02332821 35.95138074 -0.04097879 53.92708492 -0.05181217 C62.27292829 -0.0569753 70.61876227 -0.06401831 78.96459961 -0.07543945 C86.2361877 -0.08538579 93.50776899 -0.09185331 100.77936369 -0.09408849 C104.63199521 -0.09539569 108.48460728 -0.09848208 112.33723259 -0.10573006 C115.95932672 -0.11248948 119.58139328 -0.11461712 123.20349312 -0.11310768 C125.17497228 -0.11351637 127.14644841 -0.11891197 129.11791992 -0.12442017 C130.28044785 -0.1230455 131.44297577 -0.12167084 132.64073181 -0.12025452 C133.65746947 -0.12117631 134.67420713 -0.1220981 135.72175503 -0.12304783 C138 0 138 0 139 1 C139.09516211 3.7388842 139.12554594 6.45247941 139.11352539 9.19165039 C139.11367142 10.05011063 139.11381744 10.90857086 139.1139679 11.79304504 C139.11326847 14.64460738 139.1054747 17.49610525 139.09765625 20.34765625 C139.09579218 22.31920842 139.09436822 24.29076105 139.09336853 26.26231384 C139.08954251 31.46226267 139.07971152 36.66218375 139.06866455 41.86212158 C139.05845222 47.16393661 139.05387129 52.4657561 139.04882812 57.76757812 C139.03808933 68.17839763 139.02101191 78.58919651 139 89 C138.67 89 138.34 89 138 89 C136.84220388 79.66346616 136.77768103 70.353257 136.68359375 60.9609375 C136.66515177 59.42227708 136.64631317 57.88362137 136.6270752 56.3449707 C136.55909464 50.68836933 136.49874424 45.03167832 136.4375 39.375 C136.293125 26.71125 136.14875 14.0475 136 1 C91.12 1 46.24 1 0 1 C0 0.67 0 0.34 0 0 Z " fill="#F4EFE0" transform="translate(363,33)"/>
<path d="M0 0 C5.94 0.33 11.88 0.66 18 1 C17.10830166 4.56679337 16.5329766 5.95603121 14.4375 8.75 C13.98246094 9.36359375 13.52742188 9.9771875 13.05859375 10.609375 C12.70925781 11.06828125 12.35992187 11.5271875 12 12 C12.66 12 13.32 12 14 12 C13.67 13.65 13.34 15.3 13 17 C12.34 15.68 11.68 14.36 11 13 C5.06 12.67 -0.88 12.34 -7 12 C-4.89684094 7.79368189 -2.51467407 3.970538 0 0 Z " fill="#817E79" transform="translate(318,43)"/>
<path d="M0 0 C5.94 0 11.88 0 18 0 C18 6.27 18 12.54 18 19 C9.6 14.8 9.6 14.8 8 10 C6.34614767 8.65080468 4.678298 7.31866272 3 6 C0 2.48275862 0 2.48275862 0 0 Z " fill="#514E4B" transform="translate(494,134)"/>
<path d="M0 0 C4.56406401 4.2466385 8.10580013 9.01947618 11.75 14.0625 C12.99831919 15.77371384 14.24701664 17.48465181 15.49609375 19.1953125 C16.0979248 20.02192383 16.69975586 20.84853516 17.31982422 21.70019531 C20.82963707 26.50438553 24.42048137 31.24764667 28 36 C30.17986252 38.90514766 32.35838393 41.81128609 34.53515625 44.71875 C36.36754936 47.16295164 38.21145195 49.59817764 40.05859375 52.03125 C40.58735107 52.73024414 41.1161084 53.42923828 41.66088867 54.14941406 C42.68833366 55.50755459 43.71827754 56.86380988 44.7512207 58.21777344 C48.10473045 62.65904513 51.12497111 67.23557643 54 72 C51.52430976 71.62114588 50.27043828 71.27747522 48.4987793 69.4597168 C48.02867432 68.79625244 47.55856934 68.13278809 47.07421875 67.44921875 C46.5328125 66.69833984 45.99140625 65.94746094 45.43359375 65.17382812 C44.85738281 64.35333984 44.28117187 63.53285156 43.6875 62.6875 C42.43200937 60.94067285 41.17546481 59.1946028 39.91796875 57.44921875 C39.27134277 56.54606934 38.6247168 55.64291992 37.95849609 54.71240234 C34.86596445 50.4294272 31.68263385 46.2161996 28.5 42 C22.86829026 34.51382141 17.28704693 26.99212497 11.7421875 19.44140625 C10.93974609 18.34892578 10.93974609 18.34892578 10.12109375 17.234375 C9.60675781 16.53248047 9.09242188 15.83058594 8.5625 15.10742188 C7.48672125 13.65646529 6.39731709 12.21554461 5.296875 10.78320312 C4.75417969 10.07615234 4.21148437 9.36910156 3.65234375 8.640625 C3.1637085 8.01188477 2.67507324 7.38314453 2.17163086 6.73535156 C0.70259146 4.55949575 0.16330353 2.61285646 0 0 Z " fill="#ACA193" transform="translate(272,133)"/>
<path d="M0 0 C4.03696785 3.69402155 7.05959088 8.02540421 10.25 12.4375 C15.54079292 19.69134786 20.9178361 26.87051042 26.375 34 C28.34433889 36.58145922 30.31271953 39.16364588 32.28076172 41.74609375 C33.34053699 43.1354498 34.4017523 44.52371043 35.46533203 45.91015625 C36.63130888 47.43356974 37.78513606 48.96626338 38.9375 50.5 C39.81728516 51.66015625 39.81728516 51.66015625 40.71484375 52.84375 C42.14104595 55.23664852 42.61837549 57.25616806 43 60 C38.99112532 56.19484309 35.70439436 52.13765752 32.4375 47.6875 C31.37771638 46.25903133 30.3178172 44.83064838 29.2578125 43.40234375 C28.71930664 42.6738623 28.18080078 41.94538086 27.62597656 41.19482422 C25.03769913 37.70103832 22.42422087 34.22627316 19.8125 30.75 C18.81892917 29.42454007 17.82543806 28.09902037 16.83203125 26.7734375 C15.02126632 24.35867462 13.20633904 21.94715869 11.38671875 19.5390625 C10.59910156 18.49492187 9.81148438 17.45078125 9 16.375 C8.319375 15.47523438 7.63875 14.57546875 6.9375 13.6484375 C0.58394573 4.96353872 0.58394573 4.96353872 0 0 Z " fill="#50473C" transform="translate(287,149)"/>
<path d="M0 0 C3.63 0 7.26 0 11 0 C11 3.63 11 7.26 11 11 C7.37 11 3.74 11 0 11 C0 7.37 0 3.74 0 0 Z " fill="#80807D" transform="translate(524,209)"/>
<path d="M0 0 C3.63 0 7.26 0 11 0 C11 3.63 11 7.26 11 11 C7.37 11 3.74 11 0 11 C0 7.37 0 3.74 0 0 Z " fill="#7F807E" transform="translate(342,209)"/>
<path d="M0 0 C3.63 0 7.26 0 11 0 C11 3.63 11 7.26 11 11 C7.37 11 3.74 11 0 11 C0 7.37 0 3.74 0 0 Z " fill="#7E807F" transform="translate(165,209)"/>
<path d="M0 0 C0.33 0 0.66 0 1 0 C1.12130619 7.08967304 0.81679074 13.95517985 0 21 C-3.3 21 -6.6 21 -10 21 C-10 17.37 -10 13.74 -10 10 C-6.7 10 -3.4 10 0 10 C0 6.7 0 3.4 0 0 Z " fill="#7B7B7A" transform="translate(512,34)"/>
<path d="M0 0 C5.53829801 4.50086467 10.02103706 9.03155559 14 15 C14 15.99 14 16.98 14 18 C13.360625 18.12375 12.72125 18.2475 12.0625 18.375 C11.381875 18.58125 10.70125 18.7875 10 19 C9.67 19.66 9.34 20.32 9 21 C8.34 20.67 7.68 20.34 7 20 C6.54296875 17.99609375 6.54296875 17.99609375 6.1875 15.4375 C5.35299588 10.70864335 3.78398976 7.48724567 1.0234375 3.59375 C0 2 0 2 0 0 Z " fill="#AAA398" transform="translate(654,58)"/>
<path d="M0 0 C0.99 0.33 1.98 0.66 3 1 C3.33 1.99 3.66 2.98 4 4 C5.85811713 5.66589237 5.85811713 5.66589237 8.0625 7.1875 C9.16271484 7.98220703 9.16271484 7.98220703 10.28515625 8.79296875 C10.85105469 9.19128906 11.41695313 9.58960938 12 10 C12 7.03 12 4.06 12 1 C12.33 1 12.66 1 13 1 C13.02698189 2.62490954 13.04638757 4.24994633 13.0625 5.875 C13.07410156 6.77992188 13.08570313 7.68484375 13.09765625 8.6171875 C13 11 13 11 12 13 C9.51587793 13.82804069 7.64779693 14 5 14 C5 13.34 5 12.68 5 12 C4.34 12 3.68 12 3 12 C2.49440092 10.56445975 1.9957251 9.1264798 1.5 7.6875 C1.2215625 6.88699219 0.943125 6.08648437 0.65625 5.26171875 C0 3 0 3 0 0 Z " fill="#AFAA9E" transform="translate(500,143)"/>
<path d="M0 0 C0.80050781 0.38091797 0.80050781 0.38091797 1.6171875 0.76953125 C7.29022691 3.39012212 12.97881581 5.34071751 19 7 C19 7.33 19 7.66 19 8 C8.11 8 -2.78 8 -14 8 C-14 7.67 -14 7.34 -14 7 C-8.06 6.67 -2.12 6.34 4 6 C2.68 4.68 1.36 3.36 0 2 C0 1.34 0 0.68 0 0 Z " fill="#656663" transform="translate(346,113)"/>
<path d="M0 0 C2.97 0 5.94 0 9 0 C9 4.29 9 8.58 9 13 C6.3998525 10.3998525 4.32688515 8.28520326 2.25 5.375 C1.82203125 4.78460938 1.3940625 4.19421875 0.953125 3.5859375 C0 2 0 2 0 0 Z " fill="#111012" transform="translate(333,209)"/>
<path d="M0 0 C0 0.99 0 1.98 0 3 C-0.70125 3.37125 -1.4025 3.7425 -2.125 4.125 C-5.80435257 6.52457776 -7.36449997 9.39876075 -9.5703125 13.13671875 C-10.04210937 13.75160156 -10.51390625 14.36648437 -11 15 C-11.99 15 -12.98 15 -14 15 C-14.12375 15.639375 -14.2475 16.27875 -14.375 16.9375 C-14.58125 17.618125 -14.7875 18.29875 -15 19 C-15.66 19.33 -16.32 19.66 -17 20 C-17.33 20.99 -17.66 21.98 -18 23 C-18.66 22.67 -19.32 22.34 -20 22 C-17.71009569 16.04624879 -14.45755809 12.07182345 -10 7.625 C-9.21641113 6.83947754 -9.21641113 6.83947754 -8.41699219 6.03808594 C-5.79934132 3.49337784 -3.41417163 1.3623858 0 0 Z " fill="#E5EEF2" transform="translate(350,38)"/>
<path d="M0 0 C2.64 0 5.28 0 8 0 C8 2.97 8 5.94 8 9 C3.97777612 6.98888806 2.51685747 5.59551067 0 2 C0 1.34 0 0.68 0 0 Z " fill="#120E0D" transform="translate(504,144)"/>
<path d="M0 0 C-0.875 7.75 -0.875 7.75 -2 10 C-2.2322646 12.71262116 -2.41936235 15.40773126 -2.5625 18.125 C-2.60568359 18.87910156 -2.64886719 19.63320312 -2.69335938 20.41015625 C-2.7994832 22.27321888 -2.90025001 24.13658524 -3 26 C-3.33 26 -3.66 26 -4 26 C-4 20.06 -4 14.12 -4 8 C-5.32 8.33 -6.64 8.66 -8 9 C-2.2 0 -2.2 0 0 0 Z " fill="#595F64" transform="translate(330,56)"/>
<path d="M0 0 C3.68881485 3.53156519 6.77382244 7.18534092 9.8125 11.3125 C10.21919922 11.86228516 10.62589844 12.41207031 11.04492188 12.97851562 C12.03368611 14.31625547 13.01738585 15.65773623 14 17 C13.01 17.33 12.02 17.66 11 18 C9.34280239 15.94579679 7.69947241 13.88272295 6.0625 11.8125 C5.35963867 10.9452832 5.35963867 10.9452832 4.64257812 10.06054688 C2.05229789 6.76213248 0.38183889 4.31396701 0 0 Z " fill="#A69C8E" transform="translate(272,133)"/>
<path d="M0 0 C0.99 0.33 1.98 0.66 3 1 C2.06027344 1.92232422 2.06027344 1.92232422 1.1015625 2.86328125 C0.28429687 3.67152344 -0.53296875 4.47976562 -1.375 5.3125 C-2.18710937 6.11300781 -2.99921875 6.91351563 -3.8359375 7.73828125 C-6.12604842 10.00009937 -6.12604842 10.00009937 -8 13 C-8.99 13 -9.98 13 -11 13 C-9.18690997 9.22272911 -7.0926741 5.62730178 -5 2 C-4.67 2.66 -4.34 3.32 -4 4 C-3.34 4 -2.68 4 -2 4 C-2 3.34 -2 2.68 -2 2 C-1.34 2 -0.68 2 0 2 C0 1.34 0 0.68 0 0 Z " fill="#1E2029" transform="translate(341,42)"/>
<path d="M0 0 C0.33 0 0.66 0 1 0 C2.7610915 12.72962881 2.7610915 12.72962881 0.0625 17.3125 C-0.9584375 18.6428125 -0.9584375 18.6428125 -2 20 C-3.16191359 16.51425922 -2.49739343 14.72870045 -1.546875 11.2734375 C-0.65398604 7.56157053 -0.33398937 3.79693174 0 0 Z " fill="#615950" transform="translate(674,92)"/>
<path d="M0 0 C7.48291572 6.15034169 7.48291572 6.15034169 10 10 C8.02 10.99 8.02 10.99 6 12 C5.18432826 10.56429734 4.37257907 9.12636566 3.5625 7.6875 C3.11003906 6.88699219 2.65757812 6.08648437 2.19140625 5.26171875 C1 3 1 3 0 0 Z " fill="#9C8D7E" transform="translate(654,58)"/>
<path d="M0 0 C0.33 0 0.66 0 1 0 C1.28441048 3.41471446 1.52147767 6.83112664 1.75 10.25 C1.87181641 11.70212891 1.87181641 11.70212891 1.99609375 13.18359375 C2.44413244 20.4019949 2.44413244 20.4019949 0.015625 23.671875 C-0.98210938 24.32929688 -0.98210938 24.32929688 -2 25 C-1.84660156 24.21367187 -1.69320312 23.42734375 -1.53515625 22.6171875 C-0.87005679 18.12169774 -0.64586315 13.66116824 -0.4375 9.125 C-0.39431641 8.24585938 -0.35113281 7.36671875 -0.30664062 6.4609375 C-0.20130661 4.30744203 -0.10022351 2.15373936 0 0 Z " fill="#655F54" transform="translate(680,153)"/>
<path d="M0 0 C0.33 0 0.66 0 1 0 C1.02698189 1.62490954 1.04638757 3.24994633 1.0625 4.875 C1.07410156 5.77992188 1.08570313 6.68484375 1.09765625 7.6171875 C1 10 1 10 0 12 C-2.48412207 12.82804069 -4.35220307 13 -7 13 C-6.01 11.35 -5.02 9.7 -4 8 C-2.68 8.33 -1.36 8.66 0 9 C0 6.03 0 3.06 0 0 Z " fill="#7D8181" transform="translate(512,144)"/>
<path d="M0 0 C5.94 1.485 5.94 1.485 12 3 C12 3.33 12 3.66 12 4 C8.04 4 4.08 4 0 4 C0 2.68 0 1.36 0 0 Z " fill="#B6B5B2" transform="translate(353,117)"/>
<path d="M0 0 C2.33333333 2.33333333 4.66666667 4.66666667 7 7 C6.67 8.32 6.34 9.64 6 11 C3.69 8.03 1.38 5.06 -1 2 C-0.67 1.34 -0.34 0.68 0 0 Z " fill="#544B45" transform="translate(323,198)"/>
<path d="M0 0 C0.99 0.33 1.98 0.66 3 1 C3.33 1.99 3.66 2.98 4 4 C5.29355827 5.37195574 6.62298702 6.71182656 8 8 C6.68 8 5.36 8 4 8 C4 7.34 4 6.68 4 6 C3.34 6 2.68 6 2 6 C0 3 0 3 0 0 Z " fill="#9D9387" transform="translate(500,143)"/>
<path d="M0 0 C1.74627478 2.61941217 2.38722388 4.03824877 3 7 C2.4225 6.62875 1.845 6.2575 1.25 5.875 C-1 4.70833333 -1 4.70833333 -3.25 5.875 C-4.11625 6.431875 -4.11625 6.431875 -5 7 C-1.125 1.125 -1.125 1.125 0 0 Z " fill="#1A1D25" transform="translate(326,85)"/>
<path d="M0 0 C0.66 0.33 1.32 0.66 2 1 C0.25 5.875 0.25 5.875 -2 7 C-2.33 7.99 -2.66 8.98 -3 10 C-3.66 9.67 -4.32 9.34 -5 9 C-4.3566152 7.686298 -3.71021785 6.37407102 -3.0625 5.0625 C-2.70285156 4.33160156 -2.34320313 3.60070313 -1.97265625 2.84765625 C-1 1 -1 1 0 0 Z " fill="#D9E7ED" transform="translate(335,51)"/>
<path d="M0 0 C2.9375 1.1875 2.9375 1.1875 6 3 C6.875 5.6875 6.875 5.6875 7 8 C6.67 7.34 6.34 6.68 6 6 C5.0409375 5.566875 5.0409375 5.566875 4.0625 5.125 C1.57998766 3.77090236 1.03128603 2.57821507 0 0 Z " fill="#797E82" transform="translate(346,113)"/>
<path d="M0 0 C0.66 0 1.32 0 2 0 C3.6875 2.3125 3.6875 2.3125 5 5 C4.67 5.99 4.34 6.98 4 8 C0 3.375 0 3.375 0 0 Z " fill="#534C43" transform="translate(331,209)"/>
<path d="M0 0 C3.82946843 1.45255699 5.12050295 3.42895561 7 7 C4.20171644 6.61402985 3.1794116 6.19863427 1.25 4.0625 C0 2 0 2 0 0 Z " fill="#B1A698" transform="translate(301,174)"/>
<path d="M0 0 C1.875 0.5625 1.875 0.5625 4 2 C5.25 5.625 5.25 5.625 6 9 C2.91910327 6.22719294 1.31224548 3.93673644 0 0 Z " fill="#584D43" transform="translate(293,159)"/>
<path d="M0 0 C0.66 0.33 1.32 0.66 2 1 C0.6302836 4.99500618 -1.25722422 7.80009492 -4 11 C-3.48964169 6.6109185 -2.47785723 3.66291938 0 0 Z " fill="#A29A8F" transform="translate(666,116)"/>
<path d="M0 0 C0.33 1.32 0.66 2.64 1 4 C-1.31 5.65 -3.62 7.3 -6 9 C-4.47291037 5.56404834 -2.40072955 2.88087546 0 0 Z " fill="#0C0A07" transform="translate(521,210)"/>
<path d="M0 0 C1.16945792 0.80847729 2.33550461 1.62189112 3.5 2.4375 C4.47453125 3.11619141 4.47453125 3.11619141 5.46875 3.80859375 C5.9740625 4.20175781 6.479375 4.59492187 7 5 C7 5.33 7 5.66 7 6 C5.35 6 3.7 6 2 6 C2 5.34 2 4.68 2 4 C1.34 3.67 0.68 3.34 0 3 C0 2.01 0 1.02 0 0 Z " fill="#101724" transform="translate(337,106)"/>
<path d="M0 0 C0.33 0.99 0.66 1.98 1 3 C-0.40445835 5.2636564 -2.1967913 7.0208685 -4 9 C-4.66 8.67 -5.32 8.34 -6 8 C-4.02 5.36 -2.04 2.72 0 0 Z " fill="#5C5751" transform="translate(297,98)"/>
<path d="M0 0 C1.5 1.25 1.5 1.25 3 3 C3 4.32 3 5.64 3 7 C3.66 7.33 4.32 7.66 5 8 C4.34 8.66 3.68 9.32 3 10 C0.96564469 6.27034861 0 4.33094958 0 0 Z " fill="#C8DAE5" transform="translate(329,90)"/>
</svg>
