<?xml version="1.0" encoding="UTF-8"?>
<svg version="1.1" xmlns="http://www.w3.org/2000/svg" width="815" height="287">
<path d="M0 0 C0.69364719 -0.00155999 1.38729439 -0.00311998 2.1019612 -0.00472724 C4.44352933 -0.0087395 6.78503347 -0.00554673 9.12660217 -0.00241089 C10.79836058 -0.00376484 12.47011868 -0.00554474 14.14187622 -0.00772095 C18.69553247 -0.01229634 23.24916617 -0.0105052 27.80282283 -0.00734186 C32.55850077 -0.00481838 37.31417672 -0.0071558 42.06985474 -0.00872803 C50.05882617 -0.01054994 58.04778838 -0.00814304 66.03675842 -0.00338745 C75.28382512 0.00205335 84.53086976 0.00029392 93.77793592 -0.00521386 C101.7040383 -0.0097466 109.63013403 -0.01039469 117.55623728 -0.00777519 C122.29587672 -0.00621306 127.03550579 -0.00601685 131.77514458 -0.00931168 C136.23116657 -0.01219265 140.68716004 -0.01021049 145.14317894 -0.00441742 C146.78231 -0.00309096 148.42144345 -0.00348201 150.06057358 -0.00568008 C152.29098486 -0.00839611 154.52130366 -0.00500486 156.75170898 0 C158.00220504 0.00037703 159.25270109 0.00075405 160.54109097 0.0011425 C163.43934631 0.12698364 163.43934631 0.12698364 165.43934631 1.12698364 C164.87059755 5.10822496 163.56279878 7.73970693 161.43934631 11.12698364 C162.34297913 11.10378052 163.24661194 11.08057739 164.17762756 11.05667114 C165.35711975 11.03862427 166.53661194 11.02057739 167.75184631 11.00198364 C169.50948303 10.96717896 169.50948303 10.96717896 171.30262756 10.93167114 C174.43934631 11.12698364 174.43934631 11.12698364 177.43934631 13.12698364 C178.05680725 12.66807739 178.67426819 12.20917114 179.31044006 11.73635864 C191.79048175 2.69450195 202.48213708 -0.18182537 217.80018616 -0.13180542 C219.1380075 -0.13451961 220.47582736 -0.13808294 221.81364441 -0.14242554 C225.42479775 -0.15149562 229.03583606 -0.14802907 232.64699125 -0.14166737 C236.43102027 -0.13658569 240.21503979 -0.14130424 243.99906921 -0.1444397 C250.3455532 -0.14807036 256.69199051 -0.1433011 263.03846741 -0.13375854 C270.37994556 -0.12284754 277.72131284 -0.12642229 285.06278837 -0.13741136 C291.37121862 -0.14647637 297.67961545 -0.14777422 303.9880501 -0.14253402 C307.75397285 -0.13941359 311.51984338 -0.13900752 315.28576279 -0.14560699 C319.47553377 -0.15243784 323.66511206 -0.14298077 327.85487366 -0.13180542 C329.10681519 -0.13585388 330.35875671 -0.13990234 331.64863586 -0.14407349 C332.78414886 -0.13843384 333.91966187 -0.13279419 335.08958435 -0.12698364 C336.5755993 -0.12585257 336.5755993 -0.12585257 338.09163475 -0.12469864 C340.43934631 0.12698364 340.43934631 0.12698364 342.43934631 2.12698364 C343.00454634 4.78235737 343.17722829 7.41843077 343.43934631 10.12698364 C345.74934631 10.45698364 348.05934631 10.78698364 350.43934631 11.12698364 C350.47672913 10.50049927 350.51411194 9.87401489 350.55262756 9.22854614 C350.65124084 8.00264771 350.65124084 8.00264771 350.75184631 6.75198364 C350.80985413 5.93987427 350.86786194 5.12776489 350.92762756 4.29104614 C351.43934631 2.12698364 351.43934631 2.12698364 354.43934631 0.12698364 C357.38106144 -0.07333203 360.22834253 -0.1563053 363.17079163 -0.14767456 C364.06397095 -0.15278549 364.95715027 -0.15789642 365.87739563 -0.16316223 C368.84082185 -0.17709813 371.80401613 -0.17609659 374.76747131 -0.17379761 C376.83475327 -0.17768613 378.90203444 -0.18202113 380.96931458 -0.18678284 C385.31384358 -0.19425638 389.65829138 -0.19394833 394.00282288 -0.18869019 C399.53353954 -0.18293449 405.06391705 -0.19972593 410.59457779 -0.22303486 C414.87236941 -0.23788074 419.15008177 -0.23862856 423.42789459 -0.23552513 C425.46416132 -0.23603425 427.50043297 -0.241194 429.5366745 -0.25133705 C449.88169108 -0.34013733 468.35721949 1.34230351 484.43934631 15.12698364 C485.30559631 15.76635864 486.17184631 16.40573364 487.06434631 17.06448364 C489.15170047 18.87718593 490.80520976 20.66488204 492.58778381 22.76370239 C496.32770407 27.0753643 500.34735956 31.02842862 504.43934631 35.00198364 C516.3450581 46.76207229 524.59330875 58.04779336 524.75184631 75.25198364 C524.78099312 85.34649488 522.32236131 93.18904833 516.29481506 101.37307739 C515.27304221 103.09865156 515.27304221 103.09865156 515.57215881 105.09963989 C516.67095963 107.66845801 518.15796387 109.14685044 520.12684631 111.12698364 C529.5839699 121.38354034 531.93468548 131.96830525 531.71669006 145.43557739 C531.1042919 160.52007156 523.06310624 172.9164656 512.43934631 183.12698364 C496.99653537 195.93259863 479.45201589 200.28279511 459.82044983 200.27224731 C458.90551254 200.27560593 457.99057526 200.27896454 457.0479126 200.28242493 C454.05467843 200.2918462 451.06150059 200.29387271 448.06825256 200.29495239 C445.9784035 200.29816813 443.88855465 200.30153244 441.79870605 200.30503845 C437.43550595 200.3110054 433.0723256 200.31288056 428.7091217 200.31228638 C423.10787407 200.3121842 417.50675162 200.32590383 411.90553379 200.34305859 C407.59827079 200.35414492 403.29103856 200.35620673 398.98376274 200.35567665 C396.91721599 200.35685926 394.85066851 200.36129668 392.78413582 200.36900902 C389.90682596 200.37875276 387.02979495 200.37595465 384.15248108 200.36990356 C383.29484161 200.37552307 382.43720215 200.38114258 381.55357361 200.38693237 C375.66767061 200.35530794 375.66767061 200.35530794 373.43934631 198.12698364 C372.87414628 195.47160992 372.70146433 192.83553651 372.43934631 190.12698364 C371.80126038 189.99421021 371.16317444 189.86143677 370.50575256 189.72463989 C369.6794635 189.54803833 368.85317444 189.37143677 368.00184631 189.18948364 C367.17813538 189.01546021 366.35442444 188.84143677 365.50575256 188.66213989 C363.43934631 188.12698364 363.43934631 188.12698364 362.43934631 187.12698364 C362.2981947 184.45639513 362.39687524 181.80266127 362.43934631 179.12698364 C361.71747131 179.84885864 360.99559631 180.57073364 360.25184631 181.31448364 C359.32372131 182.24260864 358.39559631 183.17073364 357.43934631 184.12698364 C356.63497131 184.95198364 355.83059631 185.77698364 355.00184631 186.62698364 C342.52429211 198.80020726 330.137017 200.45103668 313.00746155 200.36990356 C311.08085442 200.37275108 311.08085442 200.37275108 309.11532593 200.37565613 C305.63242633 200.38045088 302.14965737 200.37292004 298.66677356 200.36270308 C295.00869596 200.35384697 291.35062154 200.35568139 287.6925354 200.35606384 C281.56246278 200.35513146 275.4324401 200.34649986 269.30238342 200.33279419 C262.21648361 200.31700999 255.13063814 200.31179849 248.04472202 200.31252974 C240.48337352 200.31320461 232.92204591 200.30627428 225.36070371 200.29708314 C223.18567338 200.29495262 221.01064643 200.29424211 218.83561516 200.29384422 C214.7926107 200.29265483 210.74967075 200.28295083 206.7066803 200.27224731 C205.50202118 200.2727005 204.29736206 200.27315369 203.05619812 200.27362061 C201.95874771 200.26935562 200.8612973 200.26509064 199.73059082 200.26069641 C198.77552863 200.25902057 197.82046644 200.25734472 196.83646297 200.2556181 C194.43934631 200.12698364 194.43934631 200.12698364 191.43934631 199.12698364 C190.81477358 195.69183362 190.43934631 192.6363355 190.43934631 189.12698364 C188.12934631 189.12698364 185.81934631 189.12698364 183.43934631 189.12698364 C184.09934631 190.22010864 184.75934631 191.31323364 185.43934631 192.43948364 C187.0239956 195.06405902 187.43934631 195.95262145 187.43934631 199.12698364 C184.5426269 200.57534335 182.0338705 200.25298437 178.79640198 200.25396729 C178.10598391 200.25552728 177.41556584 200.25708727 176.70422602 200.25869453 C174.37958325 200.26269854 172.05500524 200.2595172 169.73036194 200.25637817 C168.06830812 200.25773248 166.4062546 200.25951258 164.74420166 200.26168823 C160.22159532 200.26625907 155.69901171 200.26447443 151.17640495 200.26130915 C146.45142936 200.25878375 141.72645577 200.26112359 137.0014801 200.26269531 C129.06556345 200.26451648 121.12965609 200.26211208 113.19374084 200.25735474 C104.00856929 200.25191222 94.82341993 200.25367491 85.63824892 200.25918114 C77.76308136 200.26371377 69.8879205 200.26436208 62.01275206 200.26174247 C57.30442662 200.26018053 52.59611163 200.2599837 47.88778687 200.26327896 C43.46212025 200.26615984 39.03648236 200.26417797 34.61081886 200.2583847 C32.98297486 200.25705827 31.35512845 200.25744925 29.72728539 200.25964737 C27.5122541 200.26236344 25.29731594 200.25897211 23.08229065 200.25396729 C21.84046776 200.25359026 20.59864487 200.25321323 19.31919098 200.25282478 C16.43934631 200.12698364 16.43934631 200.12698364 14.43934631 199.12698364 C14.02528381 197.06057739 14.02528381 197.06057739 13.81434631 194.56448364 C13.73958069 193.73819458 13.66481506 192.91190552 13.58778381 192.06057739 C13.53879944 191.42249146 13.48981506 190.78440552 13.43934631 190.12698364 C12.80126038 189.99421021 12.16317444 189.86143677 11.50575256 189.72463989 C10.6794635 189.54803833 9.85317444 189.37143677 9.00184631 189.18948364 C8.17813538 189.01546021 7.35442444 188.84143677 6.50575256 188.66213989 C4.43934631 188.12698364 4.43934631 188.12698364 3.43934631 187.12698364 C3.29741294 184.12367346 3.39698253 181.1348123 3.43934631 178.12698364 C-0.19065369 177.79698364 -3.82065369 177.46698364 -7.56065369 177.12698364 C-7.5839802 154.19670641 -7.60163164 131.26643112 -7.61246586 108.33614445 C-7.61762934 97.69000414 -7.62467304 87.04387118 -7.63609314 76.3977356 C-7.64603838 67.12211443 -7.65250673 57.84649859 -7.65474218 48.57087225 C-7.65604956 43.65630683 -7.65913713 38.74175666 -7.66638374 33.82719612 C-7.67314143 29.20704016 -7.67527116 24.58690581 -7.67376137 19.96674538 C-7.67403781 18.26591627 -7.67604442 16.56508648 -7.67985916 14.86426163 C-7.6847925 12.55244027 -7.68365333 10.24070183 -7.6809082 7.92887878 C-7.68183 6.63191606 -7.68275179 5.33495333 -7.68370152 3.9986887 C-7.45692123 -1.29393702 -4.68777687 0.00141379 0 0 Z M164.43934631 55.12698364 C162.96394525 57.1065574 161.53798858 59.1021022 160.12684631 61.12698364 C153.13719724 71.03366328 145.8576222 80.7209999 138.44447327 90.3142395 C137.21889378 91.9012231 135.99896926 93.49256878 134.77919006 95.08401489 C133.20260917 97.13435965 131.61107937 99.17328554 130.00575256 101.20120239 C128.89006897 102.64946411 128.89006897 102.64946411 127.75184631 104.12698364 C127.08797913 104.97260864 126.42411194 105.81823364 125.74012756 106.68948364 C124.26111162 109.01060949 124.26111162 109.01060949 124.41200256 111.46682739 C125.89561256 115.3084183 128.1418365 118.37869451 130.56434631 121.68948364 C131.35591125 122.79018188 131.35591125 122.79018188 132.16346741 123.91311646 C149.14020461 147.53489134 149.14020461 147.53489134 167.43934631 170.12698364 C167.76934631 170.12698364 168.09934631 170.12698364 168.43934631 170.12698364 C169.3621615 151.02440706 169.73408618 131.93148709 169.99159241 112.80984497 C170.04296492 109.08345257 170.10018947 105.35718558 170.15809631 101.63088989 C170.17167175 100.48640884 170.18524719 99.3419278 170.19923401 98.1627655 C170.2243103 96.59733253 170.2243103 96.59733253 170.24989319 95.00027466 C170.26242126 94.0800502 170.27494934 93.15982574 170.28785706 92.2117157 C170.43934631 90.12698364 170.43934631 90.12698364 171.43934631 89.12698364 C172.77949852 88.97116061 174.12693535 88.87654222 175.47450256 88.81057739 C176.28338928 88.76868286 177.092276 88.72678833 177.92567444 88.68362427 C178.77581116 88.64430786 179.62594788 88.60499146 180.50184631 88.56448364 C181.35585022 88.52130005 182.20985413 88.47811646 183.08973694 88.43362427 C185.20606669 88.32721663 187.32268444 88.22656633 189.43934631 88.12698364 C188.32671053 84.78907629 187.53444593 84.1551074 184.87684631 82.00198364 C175.71677709 74.13413847 170.38172767 65.98477768 165.43934631 55.12698364 C165.10934631 55.12698364 164.77934631 55.12698364 164.43934631 55.12698364 Z M338.43934631 103.12698364 C339.45349565 108.19773031 340.01400038 109.21278594 343.37684631 112.75198364 C345.65272388 115.17242693 347.59028275 117.35338829 349.43934631 120.12698364 C350.09934631 120.12698364 350.75934631 120.12698364 351.43934631 120.12698364 C351.46626317 117.66857759 351.48614434 115.21046483 351.50184631 112.75198364 C351.51022522 112.05331177 351.51860413 111.35463989 351.52723694 110.63479614 C351.62289051 106.75402988 351.62289051 106.75402988 350.43934631 103.12698364 C346.47934631 103.12698364 342.51934631 103.12698364 338.43934631 103.12698364 Z M176.43934631 178.12698364 C176.43934631 179.11698364 176.43934631 180.10698364 176.43934631 181.12698364 C177.92434631 182.11698364 177.92434631 182.11698364 179.43934631 183.12698364 C179.76934631 181.80698364 180.09934631 180.48698364 180.43934631 179.12698364 C179.11934631 178.79698364 177.79934631 178.46698364 176.43934631 178.12698364 Z " fill="#FDFAF3" transform="translate(160.56065368652344,31.873016357421875)"/>
<path d="M0 0 C1.42002836 0.0011302 2.84005905 0.00049124 4.26008606 -0.00177002 C8.0902177 -0.00291137 11.91984188 0.02050297 15.74985623 0.04852581 C19.76167259 0.07363692 23.77350231 0.07588908 27.78538513 0.08062744 C35.37129704 0.09302884 42.95697664 0.12581171 50.54278654 0.1660254 C60.80133926 0.21922003 71.05995611 0.24071152 81.3186121 0.26403427 C97.46575568 0.30157545 113.6124092 0.38128482 129.75952148 0.45410156 C129.75952148 29.49410156 129.75952148 58.53410156 129.75952148 88.45410156 C120.51952148 88.45410156 111.27952148 88.45410156 101.75952148 88.45410156 C101.75952148 89.11410156 101.75952148 89.77410156 101.75952148 90.45410156 C102.70827148 90.49535156 103.65702148 90.53660156 104.63452148 90.57910156 C113.24195099 91.8336257 120.20550665 98.15332843 125.75952148 104.45410156 C126.33702148 105.09347656 126.91452148 105.73285156 127.50952148 106.39160156 C130.3306928 111.04653423 132.27583466 115.94676097 131.75952148 121.45410156 C132.41952148 121.45410156 133.07952148 121.45410156 133.75952148 121.45410156 C133.75952148 127.72410156 133.75952148 133.99410156 133.75952148 140.45410156 C133.09952148 140.45410156 132.43952148 140.45410156 131.75952148 140.45410156 C131.69764648 141.56785156 131.63577148 142.68160156 131.57202148 143.82910156 C130.43040123 152.68056817 125.29219505 160.54419259 118.75952148 166.45410156 C108.21279852 174.28424437 97.86627766 175.90538165 84.97216797 175.81054688 C83.61272551 175.81133941 82.25328329 175.81344174 80.8938446 175.81674194 C77.23321901 175.82183615 73.57287881 175.80842587 69.91229892 175.79121494 C66.07443904 175.77609622 62.23658157 175.77735121 58.3986969 175.77655029 C51.96578134 175.77286984 45.53297328 175.75795602 39.10009766 175.73535156 C30.83419432 175.70636582 22.56837689 175.69611609 14.30242825 175.69166946 C7.19364214 175.68769734 0.0848748 175.67520402 -7.02389789 175.66132259 C-9.31038607 175.65722028 -11.59687358 175.65429663 -13.88336372 175.6515274 C-17.46457047 175.64664832 -21.04572463 175.63646872 -24.62690544 175.62208939 C-26.57442255 175.61538331 -28.52195452 175.61355967 -30.46948242 175.61184692 C-32.19159691 175.60328171 -32.19159691 175.60328171 -33.94850159 175.59454346 C-34.95225106 175.59156879 -35.95600054 175.58859413 -36.99016666 175.58552933 C-39.24047852 175.45410156 -39.24047852 175.45410156 -40.24047852 174.45410156 C-40.34094655 171.75109857 -40.37664304 169.0736181 -40.36987305 166.37011719 C-40.37162537 165.52301682 -40.37337769 164.67591644 -40.37518311 163.80314636 C-40.37960261 160.9888609 -40.37666329 158.17463772 -40.37329102 155.36035156 C-40.37396403 153.41361479 -40.37493403 151.46687809 -40.37619019 149.5201416 C-40.37766729 145.43448082 -40.37551219 141.34884185 -40.37084961 137.26318359 C-40.36515232 132.01363641 -40.36843125 126.76414034 -40.37442207 121.51459503 C-40.37802734 117.4930177 -40.37688926 113.47145257 -40.37429428 109.44987488 C-40.37362492 107.51368707 -40.37445376 105.57749818 -40.37677383 103.64131165 C-40.3792998 100.94020632 -40.37546056 98.23918497 -40.36987305 95.53808594 C-40.37189728 94.72973801 -40.37392151 93.92139008 -40.37600708 93.08854675 C-40.35474099 87.56836404 -40.35474099 87.56836404 -39.24047852 86.45410156 C-37.89780439 86.36778282 -36.5507353 86.34703683 -35.20532227 86.35644531 C-34.39643555 86.35966797 -33.58754883 86.36289063 -32.75415039 86.36621094 C-31.90401367 86.37458984 -31.05387695 86.38296875 -30.17797852 86.39160156 C-29.32397461 86.39611328 -28.4699707 86.400625 -27.59008789 86.40527344 C-25.47352188 86.41709783 -23.35699167 86.43503388 -21.24047852 86.45410156 C-24.37104804 82.6191539 -27.41275044 79.2222552 -31.24047852 76.07910156 C-38.63949677 69.74112799 -43.26688249 61.58248224 -44.59033203 51.89257812 C-45.60028246 37.81321756 -44.4457502 26.85002291 -34.94750977 15.78222656 C-32.78768073 13.56813047 -30.5502149 11.50915218 -28.24047852 9.45410156 C-27.00297852 8.06191406 -27.00297852 8.06191406 -25.74047852 6.64160156 C-18.07292095 -0.06751131 -9.79969294 -0.10724082 0 0 Z " fill="#FDFAF3" transform="translate(371.240478515625,33.5458984375)"/>
<path d="M0 0 C1.33954994 -0.00744736 1.33954994 -0.00744736 2.7061615 -0.01504517 C5.67496505 -0.02970255 8.64371495 -0.03647917 11.61254883 -0.04199219 C13.68125917 -0.04774624 15.74996949 -0.05350395 17.81867981 -0.05926514 C22.16916146 -0.06978904 26.51962459 -0.07562078 30.87011719 -0.07910156 C36.40868729 -0.08455102 41.94700715 -0.10849638 47.48549938 -0.13707352 C51.76756972 -0.15583807 56.04958188 -0.16091307 60.33168983 -0.16243744 C62.37075462 -0.16543982 64.40981898 -0.1733853 66.448843 -0.18662262 C95.5052423 -0.36159368 95.5052423 -0.36159368 105.38208008 6.16113281 C106.31020508 6.71800781 107.23833008 7.27488281 108.19458008 7.84863281 C109.27739258 8.49832031 109.27739258 8.49832031 110.38208008 9.16113281 C110.05208008 10.48113281 109.72208008 11.80113281 109.38208008 13.16113281 C111.87272896 13.84820837 113.76094299 14.16113281 116.38208008 14.16113281 C117.04208008 14.16113281 117.70208008 14.16113281 118.38208008 14.16113281 C120.36208008 17.62613281 120.36208008 17.62613281 122.38208008 21.16113281 C123.04208008 20.50113281 123.70208008 19.84113281 124.38208008 19.16113281 C124.71208008 21.14113281 125.04208008 23.12113281 125.38208008 25.16113281 C126.26895508 25.30550781 127.15583008 25.44988281 128.06958008 25.59863281 C132.96688428 27.90868197 134.3778339 31.26423346 136.38208008 36.16113281 C140.36637239 48.03432389 140.61649249 59.27276532 136.38208008 71.16113281 C134.65042232 73.97177557 132.81686822 76.50091052 130.71020508 79.04003906 C129.19997259 81.02443368 129.19997259 81.02443368 129.41333008 83.14550781 C130.7251883 85.87501927 132.5224333 87.67960856 134.63208008 89.84863281 C144.69768367 100.71563796 146.0455785 110.34068054 145.78051758 124.71191406 C145.10537993 138.49477729 137.53630982 150.29307226 127.74536133 159.69238281 C109.66661011 175.16634962 91.22595458 177.93057614 68.28833008 177.64941406 C66.25936574 177.64204285 64.23039181 177.63695418 62.20141602 177.63415527 C54.76149034 177.60817003 47.32176953 177.53836462 39.88208008 177.47363281 C14.88458008 177.31894531 14.88458008 177.31894531 -10.61791992 177.16113281 C-10.61791992 119.08113281 -10.61791992 61.00113281 -10.61791992 1.16113281 C-7.31449249 -0.49058091 -3.63196593 0.00478656 0 0 Z " fill="#FCF9F2" transform="translate(523.617919921875,31.8388671875)"/>
<path d="M0 0 C1.14555862 -0.00563965 2.29111725 -0.0112793 3.47138977 -0.01708984 C5.35804855 -0.01101715 5.35804855 -0.01101715 7.28282166 -0.00482178 C8.6199055 -0.00753161 9.95698786 -0.0110925 11.29406738 -0.01544189 C14.92617675 -0.02456822 18.55817264 -0.02102091 22.19028401 -0.01468372 C25.98768883 -0.00962603 29.78508382 -0.01431443 33.58248901 -0.01745605 C39.95885465 -0.02109593 46.33517398 -0.01629558 52.71153259 -0.0067749 C60.08982872 0.00411437 67.46801436 0.00058076 74.84630781 -0.01042771 C81.17586848 -0.01949443 87.50539582 -0.02078904 93.83496088 -0.01555037 C97.61772533 -0.01242787 101.40043779 -0.01202907 105.18319893 -0.01862335 C108.73807784 -0.02438743 112.29281381 -0.0204173 115.84767723 -0.00883484 C117.77956825 -0.00491555 119.71147131 -0.01088157 121.64335632 -0.01708984 C123.35746452 -0.00863037 123.35746452 -0.00863037 125.10620117 0 C126.1033719 0.00075405 127.10054262 0.0015081 128.12793064 0.002285 C130.48960876 0.25396729 130.48960876 0.25396729 132.48960876 2.25396729 C133.05480879 4.90934101 133.22749074 7.54541441 133.48960876 10.25396729 C135.79960876 10.58396729 138.10960876 10.91396729 140.48960876 11.25396729 C140.81960876 8.28396729 141.14960876 5.31396729 141.48960876 2.25396729 C141.81960876 2.25396729 142.14960876 2.25396729 142.48960876 2.25396729 C142.48960876 60.00396729 142.48960876 117.75396729 142.48960876 177.25396729 C159.11335876 177.21271729 175.73710876 177.17146729 192.86460876 177.12896729 C198.07806091 177.13138428 203.29151306 177.13380127 208.66294861 177.1362915 C213.4114648 177.1096935 213.4114648 177.1096935 218.15992737 177.07528687 C220.24493857 177.06388193 222.33003439 177.06389834 224.41505432 177.07357788 C246.23386319 177.15871545 265.99154125 172.98855987 282.39585876 157.53521729 C292.52361708 146.50049554 297.88530174 134.40813712 297.98960876 119.50396729 C297.99605408 118.62877441 298.00249939 117.75358154 298.00914001 116.85186768 C297.8410944 108.30658659 295.8325764 101.36650837 290.61460876 94.50396729 C289.56853455 93.11758057 289.56853455 93.11758057 288.50132751 91.70318604 C286.88852639 89.73963981 285.2991452 88.02070214 283.42710876 86.31646729 C282.78773376 85.63584229 282.14835876 84.95521729 281.48960876 84.25396729 C281.84403011 80.9043381 283.34622192 78.93233681 285.36460876 76.31646729 C291.51150222 67.33254608 292.82403064 55.77701236 290.95054626 45.21490479 C289.59481687 39.21096032 287.76158172 34.44399335 284.48960876 29.25396729 C284.48960876 28.59396729 284.48960876 27.93396729 284.48960876 27.25396729 C283.68523376 27.16115479 283.68523376 27.16115479 282.86460876 27.06646729 C277.88709564 25.36363385 274.43991703 21.46869338 271.48960876 17.25396729 C270.21801225 15.39794114 270.21801225 15.39794114 268.48960876 14.25396729 C265.83494827 14.48440592 265.83494827 14.48440592 263.48960876 15.25396729 C262.82960876 14.26396729 262.16960876 13.27396729 261.48960876 12.25396729 C262.14960876 12.25396729 262.80960876 12.25396729 263.48960876 12.25396729 C262.81990366 9.18996863 262.81990366 9.18996863 260.64195251 8.08599854 C259.54560486 7.58133057 259.54560486 7.58133057 258.42710876 7.06646729 C257.6936322 6.7222876 256.96015564 6.37810791 256.20445251 6.02349854 C255.63855408 5.76955322 255.07265564 5.51560791 254.48960876 5.25396729 C255.14960876 4.92396729 255.80960876 4.59396729 256.48960876 4.25396729 C267.92138204 8.47436512 276.78418802 16.03712243 284.61338806 25.144104 C287.7305715 28.649465 291.12603956 31.86274769 294.48960876 35.12896729 C306.39532055 46.88905594 314.64357121 58.174777 314.80210876 75.37896729 C314.83125557 85.47347852 312.37262376 93.31603197 306.34507751 101.50006104 C305.32330466 103.2256352 305.32330466 103.2256352 305.62242126 105.22662354 C306.72122208 107.79544165 308.20822632 109.27383409 310.17710876 111.25396729 C319.63423235 121.51052398 321.98494793 132.09528889 321.76695251 145.56256104 C321.15455435 160.6470552 313.11336869 173.04344924 302.48960876 183.25396729 C287.04679782 196.05958227 269.50227834 200.40977876 249.87071228 200.39923096 C248.95577499 200.40258957 248.04083771 200.40594818 247.09817505 200.40940857 C244.10494088 200.41882985 241.11176304 200.42085636 238.11851501 200.42193604 C236.02866595 200.42515177 233.93881711 200.42851608 231.84896851 200.43202209 C227.4857684 200.43798904 223.12258805 200.4398642 218.75938416 200.43927002 C213.15813652 200.43916785 207.55701407 200.45288747 201.95579624 200.47004223 C197.64853324 200.48112857 193.34130101 200.48319037 189.03402519 200.48266029 C186.96747844 200.4838429 184.90093096 200.48828033 182.83439827 200.49599266 C179.95708841 200.5057364 177.0800574 200.50293829 174.20274353 200.49688721 C173.34510406 200.50250671 172.4874646 200.50812622 171.60383606 200.51391602 C165.71793306 200.48229158 165.71793306 200.48229158 163.48960876 198.25396729 C162.92440874 195.59859356 162.75172678 192.96252016 162.48960876 190.25396729 C161.85152283 190.12119385 161.21343689 189.98842041 160.55601501 189.85162354 C159.72972595 189.67502197 158.90343689 189.49842041 158.05210876 189.31646729 C157.22839783 189.14244385 156.40468689 188.96842041 155.55601501 188.78912354 C153.48960876 188.25396729 153.48960876 188.25396729 152.48960876 187.25396729 C152.34845715 184.58337878 152.44713769 181.92964491 152.48960876 179.25396729 C151.76773376 179.97584229 151.04585876 180.69771729 150.30210876 181.44146729 C149.37398376 182.36959229 148.44585876 183.29771729 147.48960876 184.25396729 C146.68523376 185.07896729 145.88085876 185.90396729 145.05210876 186.75396729 C132.57455456 198.9271909 120.18727945 200.57802032 103.057724 200.49688721 C101.13111687 200.49973473 101.13111687 200.49973473 99.16558838 200.50263977 C95.68268878 200.50743452 92.19991982 200.49990368 88.71703601 200.48968673 C85.05895841 200.48083061 81.40088399 200.48266503 77.74279785 200.48304749 C71.61272523 200.48211511 65.48270255 200.4734835 59.35264587 200.45977783 C52.26674606 200.44399363 45.18090059 200.43878213 38.09498447 200.43951339 C30.53363597 200.44018825 22.97230836 200.43325792 15.41096616 200.42406678 C13.23593583 200.42193626 11.06090888 200.42122576 8.88587761 200.42082787 C4.84287315 200.41963848 0.7999332 200.40993447 -3.24305725 200.39923096 C-4.44771637 200.39968414 -5.65237549 200.40013733 -6.89353943 200.40060425 C-7.99098984 200.39633926 -9.08844025 200.39207428 -10.21914673 200.38768005 C-11.17420892 200.38600421 -12.12927111 200.38432837 -13.11327457 200.38260174 C-15.51039124 200.25396729 -15.51039124 200.25396729 -18.51039124 199.25396729 C-19.13496397 195.81881727 -19.51039124 192.76331915 -19.51039124 189.25396729 C-21.82039124 189.25396729 -24.13039124 189.25396729 -26.51039124 189.25396729 C-25.85039124 190.34709229 -25.19039124 191.44021729 -24.51039124 192.56646729 C-22.92574195 195.19104266 -22.51039124 196.07960509 -22.51039124 199.25396729 C-25.40711065 200.70232699 -27.91586705 200.37996801 -31.15333557 200.38095093 C-31.84375364 200.38251092 -32.53417171 200.38407091 -33.24551153 200.38567817 C-35.57015429 200.38968218 -37.89473231 200.38650084 -40.21937561 200.38336182 C-41.88142943 200.38471612 -43.54348294 200.38649622 -45.20553589 200.38867188 C-49.72814223 200.39324271 -54.25072584 200.39145807 -58.7733326 200.38829279 C-63.49830819 200.3857674 -68.22328178 200.38810723 -72.94825745 200.38967896 C-80.8841741 200.39150012 -88.82008146 200.38909572 -96.7559967 200.38433838 C-105.94116826 200.37889586 -115.12631761 200.38065855 -124.31148863 200.38616478 C-132.18665619 200.39069741 -140.06181705 200.39134573 -147.93698549 200.38872612 C-152.64531093 200.38716417 -157.35362591 200.38696734 -162.06195068 200.3902626 C-166.48761729 200.39314348 -170.91325519 200.39116161 -175.33891869 200.38536835 C-176.96676269 200.38404192 -178.5946091 200.3844329 -180.22245216 200.38663101 C-182.43748345 200.38934708 -184.65242161 200.38595575 -186.8674469 200.38095093 C-188.10926979 200.3805739 -189.35109268 200.38019688 -190.63054657 200.37980843 C-193.51039124 200.25396729 -193.51039124 200.25396729 -195.51039124 199.25396729 C-195.92445374 197.18756104 -195.92445374 197.18756104 -196.13539124 194.69146729 C-196.24753967 193.45203369 -196.24753967 193.45203369 -196.36195374 192.18756104 C-196.41093811 191.5494751 -196.45992249 190.91138916 -196.51039124 190.25396729 C-197.14847717 190.12119385 -197.78656311 189.98842041 -198.44398499 189.85162354 C-199.27027405 189.67502197 -200.09656311 189.49842041 -200.94789124 189.31646729 C-201.77160217 189.14244385 -202.59531311 188.96842041 -203.44398499 188.78912354 C-205.51039124 188.25396729 -205.51039124 188.25396729 -206.51039124 187.25396729 C-206.58219088 185.73468691 -206.59431131 184.21229247 -206.57289124 182.69146729 C-206.5638678 181.86517822 -206.55484436 181.03888916 -206.54554749 180.18756104 C-206.52814514 179.23043213 -206.52814514 179.23043213 -206.51039124 178.25396729 C-208.16039124 178.25396729 -209.81039124 178.25396729 -211.51039124 178.25396729 C-211.51039124 177.92396729 -211.51039124 177.59396729 -211.51039124 177.25396729 C-206.23039124 177.58396729 -200.95039124 177.91396729 -195.51039124 178.25396729 C-195.51039124 181.55396729 -195.51039124 184.85396729 -195.51039124 188.25396729 C-142.38039124 188.25396729 -89.25039124 188.25396729 -34.51039124 188.25396729 C-36.43161923 185.05192063 -38.24606864 182.14128986 -40.44398499 179.17193604 C-41.00448547 178.41275879 -41.56498596 177.65358154 -42.14247131 176.87139893 C-43.03615417 175.66858276 -43.03615417 175.66858276 -43.94789124 174.44146729 C-44.56752747 173.60414063 -45.1871637 172.76681396 -45.82557678 171.90411377 C-52.42904768 162.9912415 -59.09029863 154.12188918 -65.76429749 145.26177979 C-69.11520491 140.80624542 -72.45056404 136.34061576 -75.75648499 131.85162354 C-76.33801331 131.06199219 -76.91954163 130.27236084 -77.51869202 129.45880127 C-78.71873417 127.82599696 -79.91633931 126.19139867 -81.11146545 124.55499268 C-84.05760975 120.53121569 -87.04046908 116.55400254 -90.14710999 112.65240479 C-90.71389465 111.93085205 -91.28067932 111.20929932 -91.86463928 110.46588135 C-92.9383682 109.10432745 -94.02654812 107.75401072 -95.13075256 106.41705322 C-96.57289124 104.57427979 -96.57289124 104.57427979 -98.51039124 101.25396729 C-97.86822476 96.56177359 -93.98075389 92.87608466 -91.01039124 89.31646729 C-86.92601661 84.32117126 -82.98192032 79.27588891 -79.26039124 74.00396729 C-78.85691467 73.43347656 -78.45343811 72.86298584 -78.03773499 72.27520752 C-76.46594921 70.04584443 -74.90090602 67.81179913 -73.33656311 65.57720947 C-72.23375021 64.00696065 -71.12227613 62.4428054 -70.01039124 60.87896729 C-69.06679749 59.53705322 -69.06679749 59.53705322 -68.10414124 58.16802979 C-67.57820374 57.53638916 -67.05226624 56.90474854 -66.51039124 56.25396729 C-65.85039124 56.25396729 -65.19039124 56.25396729 -64.51039124 56.25396729 C-64.24250793 55.51823486 -63.97462463 54.78250244 -63.69862366 54.0244751 C-62.53914082 51.32100042 -61.25198383 49.27634789 -59.49867249 46.92584229 C-58.9050592 46.12533447 -58.31144592 45.32482666 -57.69984436 44.50006104 C-57.08044983 43.6763501 -56.4610553 42.85263916 -55.82289124 42.00396729 C-55.22283264 41.1957251 -54.62277405 40.38748291 -54.00453186 39.55474854 C-49.91392342 34.06252452 -45.7292956 28.64809918 -41.51039124 23.25396729 C-47.45039124 23.25396729 -53.39039124 23.25396729 -59.51039124 23.25396729 C-57.70800244 19.6491897 -55.76908676 16.73349025 -53.38539124 13.50396729 C-52.66093811 12.51912354 -51.93648499 11.53427979 -51.19007874 10.51959229 C-50.35863342 9.39810791 -50.35863342 9.39810791 -49.51039124 8.25396729 C-49.18039124 9.24396729 -48.85039124 10.23396729 -48.51039124 11.25396729 C-47.60675842 11.23076416 -46.70312561 11.20756104 -45.77210999 11.18365479 C-44.5926178 11.16560791 -43.41312561 11.14756104 -42.19789124 11.12896729 C-40.44025452 11.0941626 -40.44025452 11.0941626 -38.64710999 11.05865479 C-35.51039124 11.25396729 -35.51039124 11.25396729 -32.51039124 13.25396729 C-31.19039124 12.26396729 -29.87039124 11.27396729 -28.51039124 10.25396729 C-27.52039124 10.74896729 -27.52039124 10.74896729 -26.51039124 11.25396729 C-27.36310608 11.98486572 -27.36310608 11.98486572 -28.23304749 12.73052979 C-36.47327177 20.29667896 -42.36388015 28.50109757 -42.97523499 39.87115479 C-43.1120793 47.08243571 -43.04772337 54.18772993 -41.51039124 61.25396729 C-43.49039124 58.77896729 -43.49039124 58.77896729 -45.51039124 56.25396729 C-46.31476624 57.47793213 -46.31476624 57.47793213 -47.13539124 58.72662354 C-53.86192837 68.80757854 -61.05986748 78.59708551 -68.69789124 88.00396729 C-72.65522527 92.90161897 -76.5676717 97.82388976 -80.32289124 102.87896729 C-80.76205872 103.44712158 -81.2012262 104.01527588 -81.65370178 104.60064697 C-83.39185347 106.98386748 -84.49143038 108.69326757 -84.59242249 111.67974854 C-83.01373274 115.43554833 -80.78422491 118.53803579 -78.38539124 121.81646729 C-77.59382629 122.91716553 -77.59382629 122.91716553 -76.78627014 124.0401001 C-65.71353259 139.35872627 -54.33127584 154.50368647 -42.51039124 169.25396729 C-41.62958395 151.77843281 -41.22496969 134.31086157 -40.94789124 116.81646729 C-40.9045511 114.22336364 -40.86093282 111.63026462 -40.81703186 109.03717041 C-40.71162459 102.77615227 -40.60960176 96.51508653 -40.51039124 90.25396729 C-40.18039124 90.25396729 -39.85039124 90.25396729 -39.51039124 90.25396729 C-39.18039124 118.63396729 -38.85039124 147.01396729 -38.51039124 176.25396729 C-14.2760422 176.37058568 -14.2760422 176.37058568 9.95835876 176.44927979 C19.84711546 176.47297547 29.7357354 176.50076802 39.62437439 176.5557251 C46.82758371 176.59573837 54.03068163 176.62143441 61.23399901 176.63032126 C65.04407664 176.63551166 68.85383574 176.64761068 72.66381073 176.67688751 C76.25896345 176.70428655 79.85367017 176.71236367 83.44891739 176.70639801 C85.37897215 176.70800206 87.30897971 176.72939556 89.23890686 176.75164795 C99.78735397 176.70239534 108.9331935 174.55869432 117.48960876 168.25396729 C118.14960876 168.25396729 118.80960876 168.25396729 119.48960876 168.25396729 C119.89566345 167.36064697 119.89566345 167.36064697 120.30992126 166.44927979 C121.47176938 164.28716509 122.66595184 162.8804322 124.36460876 161.12896729 C129.10726611 155.74854428 131.23611737 149.22884018 132.48960876 142.25396729 C133.14960876 142.25396729 133.80960876 142.25396729 134.48960876 142.25396729 C134.48960876 135.98396729 134.48960876 129.71396729 134.48960876 123.25396729 C133.82960876 123.25396729 133.16960876 123.25396729 132.48960876 123.25396729 C132.31687439 122.44314697 132.14414001 121.63232666 131.96617126 120.79693604 C129.32148602 110.37590565 124.54793262 103.02739504 115.30992126 97.27349854 C111.13469552 95.12463541 107.09731644 93.23665376 102.48960876 92.25396729 C102.48960876 91.59396729 102.48960876 90.93396729 102.48960876 90.25396729 C111.72960876 90.25396729 120.96960876 90.25396729 130.48960876 90.25396729 C130.48960876 61.21396729 130.48960876 32.17396729 130.48960876 2.25396729 C84.61960876 2.25396729 38.74960876 2.25396729 -8.51039124 2.25396729 C-5.121086 -0.00556954 -3.97155324 0.00300212 0 0 Z M128.48960876 103.25396729 C129.5037581 108.32471395 130.06426284 109.33976958 133.42710876 112.87896729 C135.70298633 115.29941058 137.6405452 117.48037193 139.48960876 120.25396729 C140.14960876 120.25396729 140.80960876 120.25396729 141.48960876 120.25396729 C141.51652562 117.79556123 141.53640679 115.33744847 141.55210876 112.87896729 C141.56048767 112.18029541 141.56886658 111.48162354 141.57749939 110.76177979 C141.67315296 106.88101353 141.67315296 106.88101353 140.48960876 103.25396729 C136.52960876 103.25396729 132.56960876 103.25396729 128.48960876 103.25396729 Z M-33.51039124 178.25396729 C-33.51039124 179.24396729 -33.51039124 180.23396729 -33.51039124 181.25396729 C-32.02539124 182.24396729 -32.02539124 182.24396729 -30.51039124 183.25396729 C-30.18039124 181.93396729 -29.85039124 180.61396729 -29.51039124 179.25396729 C-30.83039124 178.92396729 -32.15039124 178.59396729 -33.51039124 178.25396729 Z " fill="#4A4947" transform="translate(370.51039123535156,31.74603271484375)"/>
<path d="M0 0 C7.44897148 1.8892319 12.94435963 5.344208 19 10 C19.85078125 10.63615234 19.85078125 10.63615234 20.71875 11.28515625 C23.53868398 13.49760445 25.86794454 15.94995612 28.17578125 18.66796875 C31.90628518 22.9690146 35.91817275 26.91131044 40 30.875 C51.90571178 42.63508865 60.15396244 53.92080971 60.3125 71.125 C60.34164681 81.21951123 57.88301499 89.06206469 51.85546875 97.24609375 C50.8336959 98.97166791 50.8336959 98.97166791 51.1328125 100.97265625 C52.23161331 103.54147437 53.71861756 105.0198668 55.6875 107 C65.14462359 117.2565567 67.49533916 127.8413216 67.27734375 141.30859375 C66.66494558 156.39308792 58.62375992 168.78948195 48 179 C32.55718906 191.80561499 15.01266957 196.15581147 -4.61889648 196.14526367 C-5.53383377 196.14862228 -6.44877106 196.1519809 -7.39143372 196.15544128 C-10.38466789 196.16486256 -13.37784572 196.16688907 -16.37109375 196.16796875 C-18.46094282 196.17118449 -20.55079166 196.1745488 -22.64064026 196.17805481 C-27.00384036 196.18402176 -31.36702072 196.18589692 -35.73022461 196.18530273 C-41.33147225 196.18520056 -46.93259469 196.19892019 -52.53381252 196.21607494 C-56.84107553 196.22716128 -61.14830776 196.22922308 -65.45558357 196.22869301 C-67.52213032 196.22987562 -69.5886778 196.23431304 -71.65521049 196.24202538 C-74.53252035 196.25176912 -77.40955136 196.248971 -80.28686523 196.24291992 C-81.1445047 196.24853943 -82.00214417 196.25415894 -82.88577271 196.25994873 C-88.7716757 196.2283243 -88.7716757 196.2283243 -91 194 C-91.56520003 191.34462628 -91.73788198 188.70855287 -92 186 C-94.97 185.34 -97.94 184.68 -101 184 C-101 180.37 -101 176.74 -101 173 C-99.887388 173.00079559 -98.774776 173.00159119 -97.62844849 173.00241089 C-87.06764909 173.00603622 -76.50733256 172.97786527 -65.9466877 172.9197216 C-60.51919373 172.89083004 -55.0921263 172.87257634 -49.66455078 172.87988281 C-44.41220838 172.88654115 -39.16070401 172.86362585 -33.908535 172.82144547 C-31.91944239 172.81042887 -29.93026357 172.8095087 -27.94116592 172.81957626 C-7.02662465 172.91173648 12.26559836 168.01519719 27.90625 153.28125 C38.03400831 142.24652826 43.39569298 130.15416983 43.5 115.25 C43.50966797 113.93721069 43.50966797 113.93721069 43.51953125 112.59790039 C43.35148564 104.05261931 41.34296763 97.11254109 36.125 90.25 C35.07892578 88.86361328 35.07892578 88.86361328 34.01171875 87.44921875 C32.39891762 85.48567252 30.80953644 83.76673485 28.9375 82.0625 C28.298125 81.381875 27.65875 80.70125 27 80 C27.35442135 76.65037081 28.85661315 74.67836952 30.875 72.0625 C37.02189346 63.0785788 38.33442188 51.52304507 36.4609375 40.9609375 C35.1052081 34.95699304 33.27197295 30.19002606 30 25 C30 24.34 30 23.68 30 23 C29.195625 22.9071875 29.195625 22.9071875 28.375 22.8125 C23.39748688 21.10966656 19.95030827 17.2147261 17 13 C15.72840348 11.14397385 15.72840348 11.14397385 14 10 C11.34533951 10.23043864 11.34533951 10.23043864 9 11 C8.01 9.515 8.01 9.515 7 8 C7.66 8 8.32 8 9 8 C8.33029489 4.93600134 8.33029489 4.93600134 6.15234375 3.83203125 C5.42144531 3.49558594 4.69054687 3.15914062 3.9375 2.8125 C3.20402344 2.46832031 2.47054687 2.12414063 1.71484375 1.76953125 C1.14894531 1.51558594 0.58304688 1.26164062 0 1 C0 0.67 0 0.34 0 0 Z " fill="#494744" transform="translate(625,36)"/>
<path d="M0 0 C1.14555862 -0.00563965 2.29111725 -0.0112793 3.47138977 -0.01708984 C5.35804855 -0.01101715 5.35804855 -0.01101715 7.28282166 -0.00482178 C8.6199055 -0.00753161 9.95698786 -0.0110925 11.29406738 -0.01544189 C14.92617675 -0.02456822 18.55817264 -0.02102091 22.19028401 -0.01468372 C25.98768883 -0.00962603 29.78508382 -0.01431443 33.58248901 -0.01745605 C39.95885465 -0.02109593 46.33517398 -0.01629558 52.71153259 -0.0067749 C60.08982872 0.00411437 67.46801436 0.00058076 74.84630781 -0.01042771 C81.17586848 -0.01949443 87.50539582 -0.02078904 93.83496088 -0.01555037 C97.61772533 -0.01242787 101.40043779 -0.01202907 105.18319893 -0.01862335 C108.73807784 -0.02438743 112.29281381 -0.0204173 115.84767723 -0.00883484 C117.77956825 -0.00491555 119.71147131 -0.01088157 121.64335632 -0.01708984 C123.35746452 -0.00863037 123.35746452 -0.00863037 125.10620117 0 C126.1033719 0.00075405 127.10054262 0.0015081 128.12793064 0.002285 C130.48960876 0.25396729 130.48960876 0.25396729 132.48960876 2.25396729 C133.05480879 4.90934101 133.22749074 7.54541441 133.48960876 10.25396729 C135.79960876 10.58396729 138.10960876 10.91396729 140.48960876 11.25396729 C140.81960876 8.28396729 141.14960876 5.31396729 141.48960876 2.25396729 C141.81960876 2.25396729 142.14960876 2.25396729 142.48960876 2.25396729 C142.48960876 59.67396729 142.48960876 117.09396729 142.48960876 176.25396729 C142.15960876 176.25396729 141.82960876 176.25396729 141.48960876 176.25396729 C141.15960876 172.95396729 140.82960876 169.65396729 140.48960876 166.25396729 C139.76257751 167.34064697 139.76257751 167.34064697 139.02085876 168.44927979 C131.5167899 179.27245603 124.2189002 184.5360037 111.48960876 188.25396729 C106.6954361 188.88631363 101.99230193 188.89037582 97.16221619 188.82159424 C95.78100639 188.82017961 94.39979284 188.82098381 93.01858521 188.82380676 C89.31252177 188.82522621 85.6072874 188.79607953 81.90141463 188.76093698 C78.01242522 188.72942417 74.12341136 188.7267233 70.23431396 188.72080994 C62.88929436 188.70534398 55.54465222 188.66441521 48.19979793 188.61406249 C39.82969718 188.55794155 31.45957726 188.53062567 23.08933485 188.50558531 C5.88920257 188.45349165 -11.31053979 188.36467106 -28.51039124 188.25396729 C-28.51039124 184.62396729 -28.51039124 180.99396729 -28.51039124 177.25396729 C-26.93344482 177.25032166 -25.35649841 177.24667603 -23.73176575 177.24291992 C-8.8426275 177.20591711 6.0462718 177.14832122 20.93524551 177.07006454 C28.58911207 177.03035833 36.24287707 176.99792332 43.89683533 176.98297119 C50.57278328 176.96991077 57.24850697 176.94283517 63.92432857 176.89935422 C67.45487484 176.87683725 70.98514552 176.86105067 74.51576996 176.86208344 C78.46984335 176.86297622 82.4233594 176.83255993 86.37730408 176.79986572 C88.10793091 176.80741127 88.10793091 176.80741127 89.8735199 176.81510925 C100.13447971 176.684558 109.17733573 174.37880005 117.48960876 168.25396729 C118.14960876 168.25396729 118.80960876 168.25396729 119.48960876 168.25396729 C119.76031189 167.65842041 120.03101501 167.06287354 120.30992126 166.44927979 C121.47176938 164.28716509 122.66595184 162.8804322 124.36460876 161.12896729 C129.10726611 155.74854428 131.23611737 149.22884018 132.48960876 142.25396729 C133.14960876 142.25396729 133.80960876 142.25396729 134.48960876 142.25396729 C134.48960876 135.98396729 134.48960876 129.71396729 134.48960876 123.25396729 C133.82960876 123.25396729 133.16960876 123.25396729 132.48960876 123.25396729 C132.31687439 122.44314697 132.14414001 121.63232666 131.96617126 120.79693604 C129.32148602 110.37590565 124.54793262 103.02739504 115.30992126 97.27349854 C111.13469552 95.12463541 107.09731644 93.23665376 102.48960876 92.25396729 C102.48960876 91.59396729 102.48960876 90.93396729 102.48960876 90.25396729 C111.72960876 90.25396729 120.96960876 90.25396729 130.48960876 90.25396729 C130.48960876 61.21396729 130.48960876 32.17396729 130.48960876 2.25396729 C84.61960876 2.25396729 38.74960876 2.25396729 -8.51039124 2.25396729 C-5.121086 -0.00556954 -3.97155324 0.00300212 0 0 Z M128.48960876 103.25396729 C129.5037581 108.32471395 130.06426284 109.33976958 133.42710876 112.87896729 C135.70298633 115.29941058 137.6405452 117.48037193 139.48960876 120.25396729 C140.14960876 120.25396729 140.80960876 120.25396729 141.48960876 120.25396729 C141.51652562 117.79556123 141.53640679 115.33744847 141.55210876 112.87896729 C141.56048767 112.18029541 141.56886658 111.48162354 141.57749939 110.76177979 C141.67315296 106.88101353 141.67315296 106.88101353 140.48960876 103.25396729 C136.52960876 103.25396729 132.56960876 103.25396729 128.48960876 103.25396729 Z " fill="#A6A5A0" transform="translate(370.51039123535156,31.74603271484375)"/>
<path d="M0 0 C6.27 0.33 12.54 0.66 19 1 C17.43985006 4.12029988 16.11995688 6.28173942 13.98828125 8.94140625 C13.10342041 10.05684814 13.10342041 10.05684814 12.20068359 11.19482422 C11.26603271 12.36682373 11.26603271 12.36682373 10.3125 13.5625 C5.64258062 19.47503848 1.24875644 25.3331985 -2.5703125 31.8359375 C-4 34 -4 34 -5.7734375 35.7421875 C-9.09147758 39.10679656 -11.73047727 42.92969336 -14.5 46.75 C-15.74549986 48.45486111 -16.99160473 50.15928038 -18.23828125 51.86328125 C-18.86428223 52.72002441 -19.4902832 53.57676758 -20.13525391 54.45947266 C-22.95865611 58.30607168 -25.81972064 62.12392558 -28.6875 65.9375 C-29.17992187 66.59266602 -29.67234375 67.24783203 -30.1796875 67.92285156 C-30.63988281 68.53483398 -31.10007812 69.14681641 -31.57421875 69.77734375 C-31.99364746 70.34437012 -32.41307617 70.91139648 -32.84521484 71.49560547 C-34 73 -34 73 -35.95703125 75.12890625 C-37.27461808 77.00510466 -37.27461808 77.00510466 -36.47265625 79.37109375 C-34.72162891 82.49693301 -32.66875382 85.27301045 -30.4375 88.0625 C-29.52413248 89.22738882 -28.61138376 90.39276306 -27.69921875 91.55859375 C-27.24208496 92.1397998 -26.78495117 92.72100586 -26.31396484 93.31982422 C-19.7549431 101.70688993 -13.52854527 110.35790813 -7.22583008 118.93774414 C-3.84960868 123.52323605 -0.43187832 128.06647577 3.0625 132.5625 C7.67967739 138.5097914 12.08168633 144.600823 16.44750977 150.73461914 C18.82063009 154.05418658 21.19643926 157.27723884 23.88671875 160.34765625 C26 163 26 163 26 166 C-27.13 166 -80.26 166 -135 166 C-135 162.7 -135 159.4 -135 156 C-137.97 156 -140.94 156 -144 156 C-144 155.67 -144 155.34 -144 155 C-91.53 155 -39.06 155 15 155 C11.74994264 149.22751315 11.74994264 149.22751315 8.00390625 144.01171875 C7.45186523 143.31457764 6.89982422 142.61743652 6.33105469 141.89916992 C5.74743164 141.16931885 5.16380859 140.43946777 4.5625 139.6875 C-0.35762429 133.45461002 -5.13282241 127.14809265 -9.75 120.6875 C-15.62733376 112.46791757 -21.74223996 104.46938714 -27.94921875 96.49609375 C-28.50222656 95.77550781 -29.05523437 95.05492187 -29.625 94.3125 C-30.32496094 93.40951172 -30.32496094 93.40951172 -31.0390625 92.48828125 C-32 91 -32 91 -32 89 C-32.66 89 -33.32 89 -34 89 C-34.33 87.68 -34.66 86.36 -35 85 C-35.66 85 -36.32 85 -37 85 C-38.55078125 83.05859375 -38.55078125 83.05859375 -40.3125 80.4375 C-42.45998274 77.243345 -44.6497019 74.18361193 -47.0625 71.1875 C-49 68 -49 68 -48.625 65.5 C-48.08875 64.675 -47.5525 63.85 -47 63 C-46.60554688 62.38511719 -46.21109375 61.77023438 -45.8046875 61.13671875 C-43.43395325 57.5948134 -43.43395325 57.5948134 -42 56 C-41.34 56 -40.68 56 -40 56 C-39.76796875 55.30132812 -39.5359375 54.60265625 -39.296875 53.8828125 C-37.75035376 50.44506349 -35.62211837 47.76297937 -33.25 44.875 C-28.7103152 39.22571601 -24.34326064 33.47283008 -20.0625 27.625 C-14.97440982 20.67635525 -9.8441475 13.76332687 -4.64282227 6.89892578 C-2.10490496 3.58829874 -2.10490496 3.58829874 0 0 Z " fill="#A6A49E" transform="translate(310,54)"/>
<path d="M0 0 C8.50507526 6.59577265 14.48748204 14.42225709 17 25 C17.38669353 28.32656444 17.43121757 31.59143015 17.375 34.9375 C17.36412354 35.81921875 17.35324707 36.7009375 17.34204102 37.609375 C16.96642511 52.91749489 9.94500965 65.37377704 -1 76 C-18.04055763 91.59266711 -38.78849415 93.60424784 -60.6796875 93.390625 C-62.94653826 93.38315031 -65.21339555 93.37746319 -67.48025513 93.37347412 C-73.40189949 93.35831454 -79.32314173 93.31911742 -85.24462891 93.2746582 C-91.30495771 93.23349524 -97.36535248 93.21541848 -103.42578125 93.1953125 C-115.28402934 93.15261275 -127.14198103 93.08448052 -139 93 C-139 89.37 -139 85.74 -139 82 C-137.887388 82.00079559 -136.774776 82.00159119 -135.62844849 82.00241089 C-125.06764909 82.00603622 -114.50733256 81.97786527 -103.9466877 81.9197216 C-98.51919373 81.89083004 -93.0921263 81.87257634 -87.66455078 81.87988281 C-82.41220838 81.88654115 -77.16070401 81.86362585 -71.908535 81.82144547 C-69.91944239 81.81042887 -67.93026357 81.8095087 -65.94116592 81.81957626 C-45.02662465 81.91173648 -25.73440164 77.01519719 -10.09375 62.28125 C0.03400831 51.24652826 5.39569298 39.15416983 5.5 24.25 C5.50966797 22.93721069 5.50966797 22.93721069 5.51953125 21.59790039 C5.40144948 15.59332883 4.20384729 10.57057873 2 5 C1.4121875 3.4840625 1.4121875 3.4840625 0.8125 1.9375 C0.4103125 0.9784375 0.4103125 0.9784375 0 0 Z " fill="#A6A49E" transform="translate(663,127)"/>
<path d="M0 0 C0.33 0 0.66 0 1 0 C1.33 3.96 1.66 7.92 2 12 C7.445 12.495 7.445 12.495 13 13 C13 16.3 13 19.6 13 23 C12.67 23 12.34 23 12 23 C12 20.36 12 17.72 12 15 C11.278125 15.721875 10.55625 16.44375 9.8125 17.1875 C8.884375 18.115625 7.95625 19.04375 7 20 C6.195625 20.825 5.39125 21.65 4.5625 22.5 C-7.9150542 34.67322361 -20.30232931 36.32405303 -37.43188477 36.24291992 C-39.3584919 36.24576744 -39.3584919 36.24576744 -41.32402039 36.24867249 C-44.80691998 36.25346724 -48.28968895 36.2459364 -51.77257276 36.23571944 C-55.43065035 36.22686333 -59.08872478 36.22869775 -62.74681091 36.2290802 C-68.87688353 36.22814782 -75.00690621 36.21951621 -81.13696289 36.20581055 C-88.2228627 36.19002635 -95.30870817 36.18481485 -102.39462429 36.1855461 C-109.9559728 36.18622097 -117.51730041 36.17929063 -125.07864261 36.1700995 C-127.25367293 36.16796898 -129.42869988 36.16725847 -131.60373116 36.16686058 C-135.64673562 36.16567119 -139.68967557 36.15596718 -143.73266602 36.14526367 C-144.93732513 36.14571686 -146.14198425 36.14617004 -147.38314819 36.14663696 C-148.4805986 36.14237198 -149.57804901 36.13810699 -150.70875549 36.13371277 C-151.66381768 36.13203692 -152.61887987 36.13036108 -153.60288334 36.12863445 C-156 36 -156 36 -159 35 C-159.62457273 31.56484998 -160 28.50935186 -160 25 C-162.31 25 -164.62 25 -167 25 C-166.67 26.32 -166.34 27.64 -166 29 C-166.66 29 -167.32 29 -168 29 C-169.79826445 26.74185152 -171.4746801 24.48722261 -173.125 22.125 C-173.59292969 21.47402344 -174.06085938 20.82304687 -174.54296875 20.15234375 C-178 15.26412172 -178 15.26412172 -178 13 C-175.03 13 -172.06 13 -169 13 C-169 16.63 -169 20.26 -169 24 C-150.97063073 23.98510652 -132.941575 23.94375514 -114.91235828 23.86790943 C-106.5399316 23.83334464 -98.16766811 23.80791513 -89.79516602 23.80444336 C-82.49256418 23.80139156 -75.19025361 23.78073886 -67.88776416 23.73947543 C-64.02569799 23.71825318 -60.16404476 23.70548869 -56.30191994 23.71384621 C-52.65648596 23.72145555 -49.01188392 23.70528954 -45.36660194 23.67193985 C-43.41178107 23.65994178 -41.45685674 23.67220505 -39.50204468 23.68556213 C-28.15406309 23.54049237 -17.83738523 20.46039804 -9.0078125 13.11328125 C-5.87043426 9.81109909 -3.59488877 6.08565361 -1.3125 2.16015625 C-0.879375 1.44730469 -0.44625 0.73445312 0 0 Z M-174 14 C-174 14.99 -174 15.98 -174 17 C-172.515 17.99 -172.515 17.99 -171 19 C-170.67 17.68 -170.34 16.36 -170 15 C-171.32 14.67 -172.64 14.34 -174 14 Z " fill="#484745" transform="translate(511,196)"/>
<path d="M0 0 C0.75728394 0.00202423 1.51456787 0.00404846 2.2947998 0.00613403 C3.06787476 0.00517731 3.84094971 0.00422058 4.63745117 0.00323486 C6.27502524 0.00255313 7.91260199 0.00440697 9.5501709 0.00857544 C12.06536901 0.01392382 14.58038854 0.00863027 17.09558105 0.00222778 C18.68282103 0.00288857 20.2700609 0.00416973 21.8572998 0.00613403 C22.99322571 0.00309769 22.99322571 0.00309769 24.15209961 0 C29.46109849 0.02399522 29.46109849 0.02399522 30.5760498 1.13894653 C30.67696456 3.72084099 30.71576479 6.27541154 30.7088623 8.85769653 C30.70981903 9.63077148 30.71077576 10.40384644 30.71176147 11.2003479 C30.71244321 12.83792197 30.71058937 14.47549872 30.7064209 16.11306763 C30.70107252 18.62826574 30.70636607 21.14328527 30.71276855 23.65847778 C30.71210777 25.24571776 30.71082661 26.83295763 30.7088623 28.42019653 C30.71088654 29.17748047 30.71291077 29.9347644 30.71499634 30.71499634 C30.69100112 36.02399522 30.69100112 36.02399522 29.5760498 37.13894653 C26.9097895 37.22749814 24.26957866 37.25419327 21.60339355 37.23660278 C20.80575089 37.23518784 20.00810822 37.23377289 19.18629456 37.23231506 C16.62867545 37.2266997 14.07114263 37.21414465 11.5135498 37.20144653 C9.78373336 37.19643351 8.05391554 37.19187026 6.32409668 37.18777466 C2.07471427 37.17672528 -2.17460331 37.1594504 -6.4239502 37.13894653 C-6.4486003 32.03030757 -6.46678627 26.92170294 -6.47888184 21.8130188 C-6.48392224 20.07375486 -6.4907545 18.33449517 -6.49938965 16.59524536 C-6.51146811 14.10068717 -6.51718128 11.6061848 -6.52160645 9.11160278 C-6.52676773 8.32930801 -6.53192902 7.54701324 -6.5372467 6.74101257 C-6.53744245 4.87327539 -6.48594714 3.00565449 -6.4239502 1.13894653 C-4.66322436 -0.6217793 -2.34498729 0.0105987 0 0 Z " fill="#EEEBE5" transform="translate(708.4239501953125,170.86105346679688)"/>
<path d="M0 0 C7.44897148 1.8892319 12.94435963 5.344208 19 10 C19.5671875 10.42410156 20.134375 10.84820312 20.71875 11.28515625 C24.40797144 14.1796252 27.37261497 17.58894322 30.39453125 21.14453125 C32.05876382 23.12147626 32.05876382 23.12147626 34.3125 25.25 C36.09056085 27.09391495 36.8608624 28.72172481 38 31 C39.16789063 32.29744141 39.16789063 32.29744141 40.359375 33.62109375 C43.33759459 37.15568403 44.83641616 40.84366584 46.3125 45.1875 C46.5710376 45.93563965 46.8295752 46.6837793 47.09594727 47.45458984 C49.0354802 53.39924869 49.77328292 58.75500631 49 65 C48.89429688 66.10859375 48.78859375 67.2171875 48.6796875 68.359375 C47.92276034 72.41372047 46.5678345 75.46096489 44.6875 79.125 C44.09324219 80.30320312 43.49898437 81.48140625 42.88671875 82.6953125 C41.14627083 85.74379893 39.27621928 88.33687369 37 91 C35.29639988 89.26346561 33.61316173 87.51314607 31.9375 85.75 C31.45216797 85.25886719 30.96683594 84.76773438 30.46679688 84.26171875 C26.99683767 80.57027279 26.99683767 80.57027279 27.01171875 77.88671875 C28.12519344 75.76099434 29.40861985 73.96295785 30.875 72.0625 C37.02189346 63.0785788 38.33442188 51.52304507 36.4609375 40.9609375 C35.1052081 34.95699304 33.27197295 30.19002606 30 25 C30 24.34 30 23.68 30 23 C29.46375 22.938125 28.9275 22.87625 28.375 22.8125 C23.39748688 21.10966656 19.95030827 17.2147261 17 13 C15.72840348 11.14397385 15.72840348 11.14397385 14 10 C11.34533951 10.23043864 11.34533951 10.23043864 9 11 C8.34 10.01 7.68 9.02 7 8 C7.66 8 8.32 8 9 8 C8.33029489 4.93600134 8.33029489 4.93600134 6.15234375 3.83203125 C5.42144531 3.49558594 4.69054687 3.15914062 3.9375 2.8125 C3.20402344 2.46832031 2.47054687 2.12414063 1.71484375 1.76953125 C1.14894531 1.51558594 0.58304688 1.26164062 0 1 C0 0.67 0 0.34 0 0 Z " fill="#A7A39B" transform="translate(625,36)"/>
<path d="M0 0 C1.14555862 -0.00563965 2.29111725 -0.0112793 3.47138977 -0.01708984 C5.35804855 -0.01101715 5.35804855 -0.01101715 7.28282166 -0.00482178 C8.6199055 -0.00753161 9.95698786 -0.0110925 11.29406738 -0.01544189 C14.92617675 -0.02456822 18.55817264 -0.02102091 22.19028401 -0.01468372 C25.98768883 -0.00962603 29.78508382 -0.01431443 33.58248901 -0.01745605 C39.95885465 -0.02109593 46.33517398 -0.01629558 52.71153259 -0.0067749 C60.08982872 0.00411437 67.46801436 0.00058076 74.84630781 -0.01042771 C81.17586848 -0.01949443 87.50539582 -0.02078904 93.83496088 -0.01555037 C97.61772533 -0.01242787 101.40043779 -0.01202907 105.18319893 -0.01862335 C108.73807784 -0.02438743 112.29281381 -0.0204173 115.84767723 -0.00883484 C117.77956825 -0.00491555 119.71147131 -0.01088157 121.64335632 -0.01708984 C123.35746452 -0.00863037 123.35746452 -0.00863037 125.10620117 0 C126.1033719 0.00075405 127.10054262 0.0015081 128.12793064 0.002285 C130.48960876 0.25396729 130.48960876 0.25396729 132.48960876 2.25396729 C133.05480879 4.90934101 133.22749074 7.54541441 133.48960876 10.25396729 C135.79960876 10.58396729 138.10960876 10.91396729 140.48960876 11.25396729 C140.81960876 8.28396729 141.14960876 5.31396729 141.48960876 2.25396729 C141.81960876 2.25396729 142.14960876 2.25396729 142.48960876 2.25396729 C142.61091496 9.34364032 142.30639951 16.20914714 141.48960876 23.25396729 C138.18960876 23.25396729 134.88960876 23.25396729 131.48960876 23.25396729 C131.48960876 45.36396729 131.48960876 67.47396729 131.48960876 90.25396729 C131.15960876 90.25396729 130.82960876 90.25396729 130.48960876 90.25396729 C130.48960876 61.21396729 130.48960876 32.17396729 130.48960876 2.25396729 C84.61960876 2.25396729 38.74960876 2.25396729 -8.51039124 2.25396729 C-5.121086 -0.00556954 -3.97155324 0.00300212 0 0 Z " fill="#A8A49C" transform="translate(370.51039123535156,31.74603271484375)"/>
<path d="M0 0 C0.99 0.33 1.98 0.66 3 1 C2.67 58.42 2.34 115.84 2 175 C1.34 175.33 0.68 175.66 0 176 C0 117.92 0 59.84 0 0 Z " fill="#A3B3BC" transform="translate(153,33)"/>
<path d="M0 0 C0.33 0.99 0.66 1.98 1 3 C1.90363281 2.97679687 2.80726563 2.95359375 3.73828125 2.9296875 C4.91777344 2.91164062 6.09726562 2.89359375 7.3125 2.875 C9.07013672 2.84019531 9.07013672 2.84019531 10.86328125 2.8046875 C14 3 14 3 17 5 C18.32 4.01 19.64 3.02 21 2 C21.66 2.33 22.32 2.66 23 3 C22.39671875 3.556875 21.7934375 4.11375 21.171875 4.6875 C16.14527917 9.48708828 12.68498334 13.57938765 10 20 C9.34 18.68 8.68 17.36 8 16 C2.06 15.67 -3.88 15.34 -10 15 C-8.19761121 11.39522241 -6.25869552 8.47952297 -3.875 5.25 C-3.15054687 4.26515625 -2.42609375 3.2803125 -1.6796875 2.265625 C-1.12539063 1.51796875 -0.57109375 0.7703125 0 0 Z " fill="#807D79" transform="translate(321,40)"/>
<path d="M0 0 C3.26100118 3.06224942 5.75971704 6.33175229 8.3125 10 C19.35276348 25.69469971 31.01327474 41.01659343 43 56 C43.33 48.41 43.66 40.82 44 33 C44.33 33 44.66 33 45 33 C45 42.57 45 52.14 45 62 C44.01 62 43.02 62 42 62 C40.15733442 59.7888013 38.51200096 57.60670221 36.875 55.25 C35.88602512 53.86284725 34.89643398 52.47613367 33.90625 51.08984375 C33.41511719 50.39616699 32.92398438 49.70249023 32.41796875 48.98779297 C30.44871173 46.2271713 28.41711793 43.51974437 26.375 40.8125 C25.64539063 39.84183594 24.91578125 38.87117188 24.1640625 37.87109375 C22.74392215 35.98697252 21.3221019 34.10411608 19.8984375 32.22265625 C18.04075539 29.76038305 16.19347691 27.29083754 14.35400391 24.81494141 C13.35276697 23.47285785 12.34645516 22.13455692 11.33740234 20.79833984 C9.52563962 18.39498112 7.73063506 15.97977839 5.9375 13.5625 C5.35258789 12.79276855 4.76767578 12.02303711 4.16503906 11.22998047 C3.62459961 10.49537598 3.08416016 9.76077148 2.52734375 9.00390625 C2.03999756 8.35236572 1.55265137 7.7008252 1.05053711 7.02954102 C-0.2345086 4.54695096 -0.19359841 2.75735598 0 0 Z " fill="#2A2423" transform="translate(285,145)"/>
<path d="M0 0 C22.13070356 -0.02333311 44.2614051 -0.04098121 66.39211845 -0.05181217 C76.6671782 -0.05697425 86.94223031 -0.06401528 97.21728516 -0.07543945 C106.1702637 -0.08538897 115.12323672 -0.09185407 124.07622063 -0.09408849 C128.81923171 -0.09539514 133.56222698 -0.09847812 138.305233 -0.10573006 C142.765341 -0.11249449 147.22542661 -0.11461609 151.68553925 -0.11310768 C153.32628374 -0.11338382 154.96702894 -0.11538644 156.60776901 -0.11920547 C158.84041845 -0.12414931 161.07298231 -0.12299571 163.30563354 -0.12025452 C165.18332585 -0.12163721 165.18332585 -0.12163721 167.09895134 -0.12304783 C170 0 170 0 172 1 C171.6875 3.375 171.6875 3.375 171 6 C170.01 6.66 169.02 7.32 168 8 C168.33 5.69 168.66 3.38 169 1 C113.23 1 57.46 1 0 1 C0 0.67 0 0.34 0 0 Z " fill="#32302D" transform="translate(154,32)"/>
<path d="M0 0 C3.94953867 3.75670405 7.21201168 7.73866334 10.4375 12.125 C10.94974121 12.81440674 11.46198242 13.50381348 11.98974609 14.21411133 C16.65385005 20.50048182 21.28046716 26.81483679 25.91430664 33.12353516 C30.11060032 38.82545831 34.3965877 44.44837221 38.734375 50.04296875 C42.24814383 54.62904289 45.63219167 59.30576436 49 64 C48.01 64.33 47.02 64.66 46 65 C37.69269533 54.19455981 29.45939157 43.35323463 21.52807617 32.26806641 C18.30843874 27.7786205 15.01643289 23.36097146 11.625 19 C8.65260906 15.16309013 5.71231817 11.31319762 2.875 7.375 C2.31554687 6.59898437 1.75609375 5.82296875 1.1796875 5.0234375 C0 3 0 3 0 0 Z " fill="#AAA092" transform="translate(277,140)"/>
<path d="M0 0 C0.33 0 0.66 0 1 0 C1.33 2.64 1.66 5.28 2 8 C4.31 8.33 6.62 8.66 9 9 C9.33 6.03 9.66 3.06 10 0 C10.33 0 10.66 0 11 0 C11.12130619 7.08967304 10.81679074 13.95517985 10 21 C6.7 21 3.4 21 0 21 C0 14.07 0 7.14 0 0 Z " fill="#6A6866" transform="translate(502,34)"/>
<path d="M0 0 C5.94 0 11.88 0 18 0 C17.67 0.99 17.34 1.98 17 3 C17 2.34 17 1.68 17 1 C13.04 1 9.08 1 5 1 C7.52421388 6.99500797 12.0788426 15.0394213 18 18 C18 15.36 18 12.72 18 10 C18.33 10 18.66 10 19 10 C19.05395478 11.62463842 19.09277195 13.24978541 19.125 14.875 C19.14820313 15.77992188 19.17140625 16.68484375 19.1953125 17.6171875 C19 20 19 20 17 22 C17 21.34 17 20.68 17 20 C15.68 20.99 14.36 21.98 13 23 C11.12109375 22.390625 11.12109375 22.390625 9 21 C7.91015625 18.171875 7.91015625 18.171875 7.0625 14.75 C5.52704085 9.21378276 3.96342311 6.0735182 0 2 C0 1.34 0 0.68 0 0 Z " fill="#A8A195" transform="translate(494,134)"/>
<path d="M0 0 C1.65 0 3.3 0 5 0 C4.69249629 2.14655501 4.3788634 4.29223285 4.0625 6.4375 C3.88847656 7.63246094 3.71445312 8.82742187 3.53515625 10.05859375 C3 13 3 13 2 14 C1.87494915 16.58549772 1.813952 19.14561411 1.79467773 21.73266602 C1.78477814 22.5423584 1.77487854 23.35205078 1.76467896 24.1862793 C1.73297013 26.87545805 1.70826965 29.5646545 1.68359375 32.25390625 C1.66303231 34.11336234 1.64203606 35.97281368 1.62062073 37.83226013 C1.56531634 42.73623815 1.5159441 47.64025893 1.46777344 52.54431152 C1.41761934 57.54455388 1.36190155 62.54473382 1.30664062 67.54492188 C1.19895679 77.36322799 1.09753468 87.18158819 1 97 C0.67 97 0.34 97 0 97 C0 64.99 0 32.98 0 0 Z " fill="#F1F9FA" transform="translate(513,34)"/>
<path d="M0 0 C3.63 0 7.26 0 11 0 C11 3.63 11 7.26 11 11 C7.37 11 3.74 11 0 11 C0 7.37 0 3.74 0 0 Z " fill="#80807D" transform="translate(524,209)"/>
<path d="M0 0 C3.63 0 7.26 0 11 0 C11 3.63 11 7.26 11 11 C7.37 11 3.74 11 0 11 C0 7.37 0 3.74 0 0 Z " fill="#7F807E" transform="translate(342,209)"/>
<path d="M0 0 C7.44897148 1.8892319 12.94435963 5.344208 19 10 C19.5671875 10.42410156 20.134375 10.84820312 20.71875 11.28515625 C26.66196585 15.94805166 31.37411887 22.07887215 36 28 C34.68 28 33.36 28 32 28 C31.7525 27.195625 31.505 26.39125 31.25 25.5625 C30.8375 24.716875 30.425 23.87125 30 23 C28.67851173 22.62243192 27.34164079 22.2981424 26 22 C22.42417647 19.29988836 19.56332298 16.66188997 17 13 C15.72840348 11.14397385 15.72840348 11.14397385 14 10 C11.34533951 10.23043864 11.34533951 10.23043864 9 11 C8.34 10.01 7.68 9.02 7 8 C7.66 8 8.32 8 9 8 C8.33029489 4.93600134 8.33029489 4.93600134 6.15234375 3.83203125 C5.42144531 3.49558594 4.69054687 3.15914062 3.9375 2.8125 C3.20402344 2.46832031 2.47054687 2.12414063 1.71484375 1.76953125 C1.14894531 1.51558594 0.58304688 1.26164062 0 1 C0 0.67 0 0.34 0 0 Z " fill="#A6A197" transform="translate(625,36)"/>
<path d="M0 0 C5.28 0.33 10.56 0.66 16 1 C16 4.3 16 7.6 16 11 C8.28515625 11.09765625 8.28515625 11.09765625 6 11 C5 10 5 10 4.90234375 7.93359375 C4.91974609 6.69802734 4.91974609 6.69802734 4.9375 5.4375 C4.94652344 4.61121094 4.95554688 3.78492188 4.96484375 2.93359375 C4.97644531 2.29550781 4.98804688 1.65742188 5 1 C3.35 1 1.7 1 0 1 C0 0.67 0 0.34 0 0 Z " fill="#717373" transform="translate(159,209)"/>
<path d="M0 0 C0.33 0.99 0.66 1.98 1 3 C1.90363281 2.97679687 2.80726563 2.95359375 3.73828125 2.9296875 C4.91777344 2.91164062 6.09726562 2.89359375 7.3125 2.875 C9.07013672 2.84019531 9.07013672 2.84019531 10.86328125 2.8046875 C14 3 14 3 17 5 C18.32 4.01 19.64 3.02 21 2 C21.66 2.33 22.32 2.66 23 3 C22.06027344 3.92232422 22.06027344 3.92232422 21.1015625 4.86328125 C20.28429687 5.67152344 19.46703125 6.47976562 18.625 7.3125 C17.81289063 8.11300781 17.00078125 8.91351563 16.1640625 9.73828125 C13.87395158 12.00009937 13.87395158 12.00009937 12 15 C11.01 14.67 10.02 14.34 9 14 C9.66 12.68 10.32 11.36 11 10 C8.525 9.01 8.525 9.01 6 8 C6 7.01 6 6.02 6 5 C3.36 4.67 0.72 4.34 -2 4 C-1.34 2.68 -0.68 1.36 0 0 Z " fill="#5D5953" transform="translate(321,40)"/>
<path d="M0 0 C3.56348283 3.30776994 6.24014855 6.96916815 9 10.9375 C9.85276962 12.1559269 10.70691563 13.37339173 11.5625 14.58984375 C12.17496582 15.46322388 12.17496582 15.46322388 12.79980469 16.35424805 C13.89203179 17.85195002 15.0749042 19.28247191 16.265625 20.703125 C18.54010806 23.71527824 18.70924292 26.29284722 19 30 C18.43023437 29.28328125 17.86046875 28.5665625 17.2734375 27.828125 C15.81480899 26.01361119 14.34197689 24.21037226 12.8515625 22.421875 C-0.43975515 6.47229381 -0.43975515 6.47229381 0 0 Z " fill="#3E352E" transform="translate(285,145)"/>
<path d="M0 0 C2.97 0 5.94 0 9 0 C9 3.63 9 7.26 9 11 C12.63 11 16.26 11 20 11 C20.33 14.63 20.66 18.26 21 22 C20.34 22 19.68 22 19 22 C18.37542727 18.56484998 18 15.50935186 18 12 C15.69 12 13.38 12 11 12 C11.33 13.32 11.66 14.64 12 16 C11.34 16 10.68 16 10 16 C8.20173555 13.74185152 6.5253199 11.48722261 4.875 9.125 C4.17310547 8.14853516 4.17310547 8.14853516 3.45703125 7.15234375 C0 2.26412172 0 2.26412172 0 0 Z M4 1 C4 1.99 4 2.98 4 4 C5.485 4.99 5.485 4.99 7 6 C7.33 4.68 7.66 3.36 8 2 C6.68 1.67 5.36 1.34 4 1 Z " fill="#0E0E0F" transform="translate(333,209)"/>
<path d="M0 0 C0.33 0 0.66 0 1 0 C0.125 7.75 0.125 7.75 -1 10 C-1.15004973 11.3734635 -1.24838006 12.7528526 -1.31640625 14.1328125 C-1.35830078 14.93847656 -1.40019531 15.74414062 -1.44335938 16.57421875 C-1.50233398 17.83685547 -1.50233398 17.83685547 -1.5625 19.125 C-1.60568359 19.97449219 -1.64886719 20.82398437 -1.69335938 21.69921875 C-1.79954236 23.79928223 -1.90028497 25.89961948 -2 28 C-2.33 28 -2.66 28 -3 28 C-3.33 22.39 -3.66 16.78 -4 11 C-4.33 11.99 -4.66 12.98 -5 14 C-6.32 14 -7.64 14 -9 14 C-9.99 14.495 -9.99 14.495 -11 15 C-9.52834523 11.77707606 -7.69245806 9.15273288 -5.5 6.375 C-4.8915625 5.59898438 -4.283125 4.82296875 -3.65625 4.0234375 C-2 2 -2 2 0 0 Z " fill="#5F5753" transform="translate(329,56)"/>
<path d="M0 0 C5.94 0 11.88 0 18 0 C17.67 0.99 17.34 1.98 17 3 C17 2.34 17 1.68 17 1 C13.04 1 9.08 1 5 1 C7.36549594 6.5658728 10.91084731 10.58595572 15 15 C14.67 15.66 14.34 16.32 14 17 C12.125 16.3125 12.125 16.3125 10 15 C9.690625 14.21625 9.38125 13.4325 9.0625 12.625 C7.71352781 9.29224518 5.83653111 8.14469425 3 6 C0 2.48275862 0 2.48275862 0 0 Z " fill="#5B5149" transform="translate(494,134)"/>
<path d="M0 0 C9.24 0 18.48 0 28 0 C28 0.33 28 0.66 28 1 C23.05 1.33 18.1 1.66 13 2 C13.33 3.65 13.66 5.3 14 7 C13.360625 6.731875 12.72125 6.46375 12.0625 6.1875 C8.08797739 4.64635858 4.05115505 3.32390688 0 2 C0 1.34 0 0.68 0 0 Z " fill="#BEBBB3" transform="translate(473,122)"/>
<path d="M0 0 C2.64 0.33 5.28 0.66 8 1 C7.484375 1.763125 6.96875 2.52625 6.4375 3.3125 C5.963125 4.199375 5.48875 5.08625 5 6 C5.33 6.99 5.66 7.98 6 9 C5.01 10.485 5.01 10.485 4 12 C3.67 10.68 3.34 9.36 3 8 C0.69 7.67 -1.62 7.34 -4 7 C-3.67 6.01 -3.34 5.02 -3 4 C-2.34 4 -1.68 4 -1 4 C-0.67 2.68 -0.34 1.36 0 0 Z " fill="#7E807C" transform="translate(326,48)"/>
<path d="M0 0 C1.34313399 0.64669414 2.67391178 1.31903578 4 2 C4.9075 2.45375 5.815 2.9075 6.75 3.375 C7.4925 3.91125 8.235 4.4475 9 5 C9 6.32 9 7.64 9 9 C2.07 9 -4.86 9 -12 9 C-12 8.67 -12 8.34 -12 8 C-6.06 8 -0.12 8 6 8 C5.01 6.865625 4.02 5.73125 3 4.5625 C0 1.125 0 1.125 0 0 Z " fill="#676B6C" transform="translate(344,112)"/>
<path d="M0 0 C3.3046792 1.41318519 5.19508587 3.07279525 7.5 5.8125 C8.09941406 6.52019531 8.69882812 7.22789063 9.31640625 7.95703125 C11.23559869 10.2858889 13.14207754 12.62185925 15 15 C13.68 15 12.36 15 11 15 C10.7525 14.195625 10.505 13.39125 10.25 12.5625 C9.8375 11.716875 9.425 10.87125 9 10 C7.06381575 9.32843384 7.06381575 9.32843384 5 9 C1.79549048 6.65824304 1.0745108 3.71946046 0 0 Z " fill="#9E9386" transform="translate(646,49)"/>
<path d="M0 0 C2.97 0 5.94 0 9 0 C9 3.3 9 6.6 9 10 C8.67 9.34 8.34 8.68 8 8 C7.21625 7.71125 6.4325 7.4225 5.625 7.125 C2.66053878 5.85451662 1.62791668 4.74175441 0 2 C0 1.34 0 0.68 0 0 Z M4 1 C4 1.99 4 2.98 4 4 C5.485 4.99 5.485 4.99 7 6 C7.33 4.68 7.66 3.36 8 2 C6.68 1.67 5.36 1.34 4 1 Z " fill="#161516" transform="translate(333,209)"/>
<path d="M0 0 C0.75 1.6875 0.75 1.6875 1 4 C-0.8125 6.75 -0.8125 6.75 -3 9 C-3.66 9 -4.32 9 -5 9 C-5.66 10.65 -6.32 12.3 -7 14 C-7.66 13.67 -8.32 13.34 -9 13 C-6.6560756 7.72289646 -4.33034194 3.84919283 0 0 Z " fill="#E7EFF3" transform="translate(339,47)"/>
<path d="M0 0 C0.66 0.33 1.32 0.66 2 1 C1.06027344 1.92232422 1.06027344 1.92232422 0.1015625 2.86328125 C-0.71570313 3.67152344 -1.53296875 4.47976562 -2.375 5.3125 C-3.18710937 6.11300781 -3.99921875 6.91351563 -4.8359375 7.73828125 C-7.12604842 10.00009937 -7.12604842 10.00009937 -9 13 C-9.99 12.67 -10.98 12.34 -12 12 C-11.12077066 10.53159636 -10.22083011 9.0755826 -9.3125 7.625 C-8.81363281 6.81289063 -8.31476563 6.00078125 -7.80078125 5.1640625 C-5.71511131 2.65763919 -4.05690701 2.00376051 -1 1 C-0.67 0.67 -0.34 0.34 0 0 Z " fill="#1D1D25" transform="translate(342,42)"/>
<path d="M0 0 C0.33 0 0.66 0 1 0 C3.66514806 16.70842825 3.66514806 16.70842825 1 25 C0.67 25 0.34 25 0 25 C0 16.75 0 8.5 0 0 Z " fill="#EBFBFE" transform="translate(513,136)"/>
<path d="M0 0 C2.9664161 0.3178303 4.01076795 1.0104603 6.1875 3.125 C8.30075583 6.47706098 8.69282238 9.08348532 9 13 C8.443125 12.29875 7.88625 11.5975 7.3125 10.875 C6.10092631 9.3687192 4.88412646 7.86574426 3.62109375 6.40234375 C0 2.20352564 0 2.20352564 0 0 Z " fill="#4A4038" transform="translate(295,162)"/>
<path d="M0 0 C0 0.66 0 1.32 0 2 C-0.99 2.66 -1.98 3.32 -3 4 C-3.33 4.99 -3.66 5.98 -4 7 C-4.66 7 -5.32 7 -6 7 C-6 7.66 -6 8.32 -6 9 C-7.65 9.33 -9.3 9.66 -11 10 C-9.15139825 5.46252298 -5.31552576 0 0 0 Z " fill="#F2F7F8" transform="translate(352,37)"/>
<path d="M0 0 C3.29164829 -0.02895225 6.58326399 -0.0467823 9.875 -0.0625 C10.81214844 -0.07087891 11.74929688 -0.07925781 12.71484375 -0.08789062 C14.05869141 -0.09272461 14.05869141 -0.09272461 15.4296875 -0.09765625 C16.67081299 -0.10551147 16.67081299 -0.10551147 17.93701172 -0.11352539 C20 0 20 0 22 1 C21.6875 3.375 21.6875 3.375 21 6 C20.01 6.66 19.02 7.32 18 8 C18.33 5.69 18.66 3.38 19 1 C12.73 1 6.46 1 0 1 C0 0.67 0 0.34 0 0 Z " fill="#33322B" transform="translate(304,32)"/>
<path d="M0 0 C0.66 0 1.32 0 2 0 C0.125 5.75 0.125 5.75 -1 8 C-1.66 8 -2.32 8 -3 8 C-2.67 8.99 -2.34 9.98 -2 11 C-3.65 11 -5.3 11 -7 11 C-5.25731793 7.03935893 -2.85325271 3.25563451 0 0 Z " fill="#8D8478" transform="translate(318,44)"/>
<path d="M0 0 C-0.52268466 2.76276177 -1.10869587 5.3260876 -2 8 C-2.66 8 -3.32 8 -4 8 C-4.66 5.36 -5.32 2.72 -6 0 C-3 -1 -3 -1 0 0 Z " fill="#544D46" transform="translate(677,82)"/>
<path d="M0 0 C5.01830384 1.4338011 7.13712499 3.7898897 10 8 C9.8125 10.375 9.8125 10.375 9 12 C8.443125 11.29875 7.88625 10.5975 7.3125 9.875 C5.64909978 7.80698891 3.9655467 5.77346534 2.25 3.75 C0 1 0 1 0 0 Z " fill="#B1A99D" transform="translate(637,42)"/>
<path d="M0 0 C5.94 0 11.88 0 18 0 C17.67 0.99 17.34 1.98 17 3 C17 2.34 17 1.68 17 1 C13.04 1 9.08 1 5 1 C4.67 1.99 4.34 2.98 4 4 C2.68 3.34 1.36 2.68 0 2 C0 1.34 0 0.68 0 0 Z " fill="#4C4944" transform="translate(494,134)"/>
<path d="M0 0 C3.78935113 2.6924337 5.56486523 4.5842007 7 9 C7.65213539 10.34050052 8.31379969 11.67661368 9 13 C8.01 13 7.02 13 6 13 C3.16969933 10.0564873 2.1505734 6.86263927 1 3 C0.67 2.01 0.34 1.02 0 0 Z " fill="#3F3832" transform="translate(321,194)"/>
<path d="M0 0 C0.33 0.66 0.66 1.32 1 2 C1.66 2 2.32 2 3 2 C4.625 4.5 4.625 4.5 6 7 C5.34 7 4.68 7 4 7 C4 7.66 4 8.32 4 9 C3.01 9.33 2.02 9.66 1 10 C0.855625 9.2575 0.71125 8.515 0.5625 7.75 C0.21921582 6.07172178 -0.16651881 4.40053228 -0.625 2.75 C-0.74875 2.1725 -0.8725 1.595 -1 1 C-0.67 0.67 -0.34 0.34 0 0 Z " fill="#F8F4E7" transform="translate(275,141)"/>
<path d="M0 0 C5.94 1.485 5.94 1.485 12 3 C12 3.33 12 3.66 12 4 C8.04 4 4.08 4 0 4 C0 2.68 0 1.36 0 0 Z " fill="#B5B6B3" transform="translate(353,117)"/>
<path d="M0 0 C0 3 0 3 0 3 Z M-2 3 C-1.33333333 5 -0.66666667 7 0 9 C-0.66 9 -1.32 9 -2 9 C-2 9.66 -2 10.32 -2 11 C-2.99 11.33 -3.98 11.66 -5 12 C-5.75 10.3125 -5.75 10.3125 -6 8 C-4.0625 5.25 -4.0625 5.25 -2 3 Z " fill="#54504A" transform="translate(288,110)"/>
<path d="M0 0 C0.33 0.99 0.66 1.98 1 3 C0.67 3.66 0.34 4.32 0 5 C-0.15004973 6.3734635 -0.24838006 7.7528526 -0.31640625 9.1328125 C-0.35830078 9.93847656 -0.40019531 10.74414062 -0.44335938 11.57421875 C-0.50233398 12.83685547 -0.50233398 12.83685547 -0.5625 14.125 C-0.60568359 14.97449219 -0.64886719 15.82398437 -0.69335938 16.69921875 C-0.79954236 18.79928223 -0.90028497 20.89961948 -1 23 C-1.33 23 -1.66 23 -2 23 C-2.25561761 19.91826331 -2.47482039 16.83497376 -2.6875 13.75 C-2.76033203 12.87730469 -2.83316406 12.00460938 -2.90820312 11.10546875 C-3.33135078 4.58401668 -3.33135078 4.58401668 -1.51953125 1.390625 C-1.01808594 0.93171875 -0.51664062 0.4728125 0 0 Z " fill="#59686D" transform="translate(328,61)"/>
<path d="M0 0 C3.27481575 0.97359387 4.76205109 1.69066641 6.875 4.4375 C8 7 8 7 7 10 C5.83043409 8.52312468 4.66441854 7.04343707 3.5 5.5625 C2.8503125 4.73878906 2.200625 3.91507813 1.53125 3.06640625 C0 1 0 1 0 0 Z " fill="#5B554D" transform="translate(328,207)"/>
<path d="M0 0 C0.66 0.33 1.32 0.66 2 1 C0.9024777 3.99324263 0.32317108 4.84610901 -2.625 6.25 C-3.40875 6.4975 -4.1925 6.745 -5 7 C-5.33 6.34 -5.66 5.68 -6 5 C-5.67 4.34 -5.34 3.68 -5 3 C-4.34 3 -3.68 3 -3 3 C-3 2.34 -3 1.68 -3 1 C-2.01 0.67 -1.02 0.34 0 0 Z " fill="#A19E96" transform="translate(497,209)"/>
<path d="M0 0 C3 0 3 0 4.421875 1.390625 C4.86015625 2.00421875 5.2984375 2.6178125 5.75 3.25 C6.19859375 3.85328125 6.6471875 4.4565625 7.109375 5.078125 C8.21943692 7.47352178 7.88257281 8.56754322 7 11 C5.83051998 9.35616456 4.6644855 7.70987731 3.5 6.0625 C2.8503125 5.14597656 2.200625 4.22945312 1.53125 3.28515625 C0 1 0 1 0 0 Z " fill="#B0A799" transform="translate(300,173)"/>
<path d="M0 0 C0.66 0.33 1.32 0.66 2 1 C1.484375 1.598125 0.96875 2.19625 0.4375 2.8125 C-0.2740625 3.8953125 -0.2740625 3.8953125 -1 5 C-0.67 5.99 -0.34 6.98 0 8 C-0.99 9.485 -0.99 9.485 -2 11 C-2.309375 10.21625 -2.61875 9.4325 -2.9375 8.625 C-3.92875038 6.07669872 -3.92875038 6.07669872 -5 4 C-3.36587557 2.29159719 -2.13093906 1.06546953 0 0 Z " fill="#74726F" transform="translate(332,49)"/>
<path d="M0 0 C2.86095641 1.2824977 5.11365918 2.45343989 7 5 C7.1875 7.6875 7.1875 7.6875 7 10 C4.4000702 7.48972295 2.00908773 5.0136316 0 2 C0 1.34 0 0.68 0 0 Z " fill="#5F554B" transform="translate(276,137)"/>
<path d="M0 0 C1.66666667 0 3.33333333 0 5 0 C5.33 2.97 5.66 5.94 6 9 C0.42857143 3.85714286 0.42857143 3.85714286 0 0 Z " fill="#AAB1B6" transform="translate(331,97)"/>
<path d="M0 0 C2.12038635 2.61514317 4.13091744 5.19637616 6 8 C5.34 8.66 4.68 9.32 4 10 C3.01 9.67 2.02 9.34 1 9 C0.67 6.03 0.34 3.06 0 0 Z " fill="#A49D93" transform="translate(326,205)"/>
<path d="M0 0 C4.29951803 1.59241408 6.39671947 4.35540725 9 8 C8.67 8.99 8.34 9.98 8 11 C6.66375099 9.35653302 5.33107149 7.71016314 4 6.0625 C3.2575 5.14597656 2.515 4.22945312 1.75 3.28515625 C0 1 0 1 0 0 Z " fill="#5D5147" transform="translate(315,190)"/>
<path d="M0 0 C4 1 4 1 6 2 C6 2.66 6 3.32 6 4 C6.66 4.33 7.32 4.66 8 5 C7.01 6.485 7.01 6.485 6 8 C4.02 5.36 2.04 2.72 0 0 Z " fill="#585049" transform="translate(667,130)"/>
<path d="M0 0 C0.33 0 0.66 0 1 0 C1.3125 2.1875 1.3125 2.1875 1 5 C-1.5 7.8125 -1.5 7.8125 -4 10 C-4.66 9.67 -5.32 9.34 -6 9 C-5.02501855 7.4972763 -4.04490611 5.99788037 -3.0625 4.5 C-2.51722656 3.6646875 -1.97195313 2.829375 -1.41015625 1.96875 C-0.94480469 1.3190625 -0.47945313 0.669375 0 0 Z " fill="#57544E" transform="translate(511,196)"/>
<path d="M0 0 C4.875 4.625 4.875 4.625 6 8 C4.68 7.67 3.36 7.34 2 7 C1.34 4.69 0.68 2.38 0 0 Z " fill="#3B332B" transform="translate(303,170)"/>
<path d="M0 0 C2.38672669 2.96283313 4.7353371 5.94270509 7 9 C5.02 8.34 3.04 7.68 1 7 C0.67 4.69 0.34 2.38 0 0 Z " fill="#37312B" transform="translate(674,135)"/>
<path d="M0 0 C2.31 0.66 4.62 1.32 7 2 C7 2.99 7 3.98 7 5 C6.01 5 5.02 5 4 5 C1.8125 2.5 1.8125 2.5 0 0 Z " fill="#999FA6" transform="translate(337,106)"/>
<path d="M0 0 C1.12894876 0.93274109 2.25300876 1.87140122 3.375 2.8125 C4.00148438 3.33457031 4.62796875 3.85664062 5.2734375 4.39453125 C7 6 7 6 9 9 C5.19902189 8.45700313 3.42542103 6.92723228 1 4 C0.38671875 1.86328125 0.38671875 1.86328125 0 0 Z " fill="#423A32" transform="translate(661,64)"/>
<path d="M0 0 C2.5 2.3125 2.5 2.3125 5 5 C5 5.99 5 6.98 5 8 C4.01 8.33 3.02 8.66 2 9 C1.22678118 6.01758453 0.58803797 3.02419525 0 0 Z " fill="#EBE3D6" transform="translate(494,136)"/>
<path d="M0 0 C0.33 0.66 0.66 1.32 1 2 C1.99 1.67 2.98 1.34 4 1 C2.55746343 4.36591866 0.66735273 6.51047079 -2 9 C-1.34 6.03 -0.68 3.06 0 0 Z " fill="#292623" transform="translate(308,104)"/>
<path d="M0 0 C0.33 0 0.66 0 1 0 C1.36923077 5.41538462 1.36923077 5.41538462 -0.5 8.375 C-0.995 8.91125 -1.49 9.4475 -2 10 C-2.66 9.67 -3.32 9.34 -4 9 C-2.68 6.03 -1.36 3.06 0 0 Z " fill="#575247" transform="translate(681,170)"/>
<path d="M0 0 C2.4375 1.125 2.4375 1.125 5 3 C5.8125 6.1875 5.8125 6.1875 6 9 C5.34 7.68 4.68 6.36 4 5 C3.34 5 2.68 5 2 5 C1.34 3.35 0.68 1.7 0 0 Z " fill="#B5AEA1" transform="translate(271,134)"/>
<path d="M0 0 C0.66 0.66 1.32 1.32 2 2 C0.02 4.97 0.02 4.97 -2 8 C-2.66 7.67 -3.32 7.34 -4 7 C-2.92598892 4.08482708 -2.22189824 2.22189824 0 0 Z " fill="#F9F4EA" transform="translate(286,83)"/>
<path d="M0 0 C0 1.65 0 3.3 0 5 C-0.66 5 -1.32 5 -2 5 C-2.33 5.99 -2.66 6.98 -3 8 C-3.33 8 -3.66 8 -4 8 C-4.36780384 3.46375267 -4.36780384 3.46375267 -2.5625 1.1875 C-1 0 -1 0 0 0 Z " fill="#4C4F4E" transform="translate(330,56)"/>
<path d="M0 0 C0.33 0 0.66 0 1 0 C1.05395478 1.62463842 1.09277195 3.24978541 1.125 4.875 C1.14820313 5.77992188 1.17140625 6.68484375 1.1953125 7.6171875 C1 10 1 10 -1 12 C-1.66 10.35 -2.32 8.7 -3 7 C-2.01 7.33 -1.02 7.66 0 8 C0 5.36 0 2.72 0 0 Z " fill="#4C5557" transform="translate(512,144)"/>
<path d="M0 0 C2.31 1.98 4.62 3.96 7 6 C5.68 6.33 4.36 6.66 3 7 C0 2.25 0 2.25 0 0 Z " fill="#635448" transform="translate(654,57)"/>
<path d="M0 0 C0 0.66 0 1.32 0 2 C-1.62626404 3.38232443 -3.2925002 4.71937515 -5 6 C-5.99 5.34 -6.98 4.68 -8 4 C-2.25 0 -2.25 0 0 0 Z " fill="#7F8187" transform="translate(352,37)"/>
<path d="M0 0 C0.66 0.33 1.32 0.66 2 1 C1.01 1.99 0.02 2.98 -1 4 C-1.66 3.67 -2.32 3.34 -3 3 C-2.01 2.01 -1.02 1.02 0 0 Z M-6 5 C-5.34 5 -4.68 5 -4 5 C-4.33 5.99 -4.66 6.98 -5 8 C-5.99 7.67 -6.98 7.34 -8 7 C-7.34 6.34 -6.68 5.68 -6 5 Z " fill="#5B554F" transform="translate(660,203)"/>
<path d="M0 0 C0.99 0.99 1.98 1.98 3 3 C2.01 3.495 2.01 3.495 1 4 C0.67 4.66 0.34 5.32 0 6 C-0.99 6.33 -1.98 6.66 -3 7 C-1.125 2.25 -1.125 2.25 0 0 Z " fill="#58514B" transform="translate(669,115)"/>
<path d="M0 0 C2 3 2 3 2 6 C0.35 6 -1.3 6 -3 6 C-2 4 -1 2 0 0 Z " fill="#908A83" transform="translate(314,49)"/>
<path d="M0 0 C0.99 0 1.98 0 3 0 C2.6875 2.375 2.6875 2.375 2 5 C1.01 5.66 0.02 6.32 -1 7 C-0.67 4.69 -0.34 2.38 0 0 Z " fill="#9A897A" transform="translate(323,33)"/>
</svg>
